<svg width="260" height="31" viewBox="0 0 260 31" fill="none" xmlns="http://www.w3.org/2000/svg">
<g clip-path="url(#clip0_1_193)">
<path d="M211.62 21.1736V22.0004C211.62 24.7168 209.888 26.6066 206.62 26.6066C204.376 26.6066 203.51 25.8586 203.51 24.4413C203.51 23.2995 204.258 22.4334 206.66 22.0004L211.62 21.1736ZM205.36 30.9372C208.51 30.9372 210.597 30.0317 211.896 28.1813C211.896 29.5199 212.092 30.4648 212.132 30.4648H217.526C217.171 29.638 216.936 28.1026 216.936 26.764V17.0398C216.936 12.2368 213.943 9.36284 207.88 9.36284C201.345 9.36284 198.904 12.9061 198.589 16.4887H204.101C204.298 15.0714 205.321 13.969 207.92 13.969C210.36 13.969 211.62 14.9926 211.62 17.0004V17.1973L206.108 18.024C200.596 18.8902 198.116 21.0161 198.116 24.5988C198.116 28.2994 200.596 30.9372 205.36 30.9372Z" fill="#003D29"/>
<path d="M234.263 12.04C233.2 10.6227 231.073 9.36284 228.161 9.36284C222.176 9.36284 218.672 14.1659 218.672 20.15C218.672 26.1341 222.176 30.9372 228.161 30.9372C231.073 30.9372 233.396 29.8349 234.695 27.9451V30.4648H239.853V0.937819H234.263V12.04ZM234.42 20.15C234.42 23.4964 232.451 26.0161 229.341 26.0161C226.231 26.0161 224.262 23.4964 224.262 20.15C224.262 16.8036 226.231 14.284 229.341 14.284C232.451 14.284 234.42 16.8036 234.42 20.15Z" fill="#003D29"/>
<path d="M250.315 30.9372C255.906 30.9372 259.055 28.0239 259.055 24.3231C259.055 15.8588 247.638 19.3233 247.638 15.8588C247.638 14.7171 248.662 13.851 250.472 13.851C252.48 13.851 253.464 15.032 253.582 16.3312H258.976C258.819 13.2998 256.693 9.36284 250.512 9.36284C245.433 9.36284 242.244 12.4337 242.244 16.1737C242.244 24.3626 253.701 21.0948 253.701 24.5594C253.701 25.7011 252.599 26.4491 250.472 26.4491C248.15 26.4491 247.126 25.1499 247.047 23.772H241.378C241.654 27.6302 243.858 30.9372 250.315 30.9372Z" fill="#003D29"/>
<path d="M71.9988 17.5883L69.5196 17.3603C67.8953 17.2178 67.2399 16.6479 67.2399 15.6505C67.2399 14.4821 68.2373 13.7127 70.175 13.7127C71.9988 13.7127 72.9107 14.5106 73.0532 15.793H78.8666C78.4962 12.0028 75.8175 9.32414 70.346 9.32414C64.6467 9.32414 61.512 12.2308 61.512 16.0779C61.512 19.6685 63.4783 21.6348 68.3513 22.0337L70.802 22.2332C72.7113 22.3757 73.3952 23.0311 73.3952 24.171C73.3952 25.3679 72.3978 26.2513 70.346 26.2513C68.4368 26.2513 67.2969 25.3964 67.0974 23.886H60.9705C61.512 28.0181 64.4187 30.7538 70.3175 30.7538C76.0454 30.7538 79.2085 27.8187 79.2085 23.8575C79.2085 20.0104 77.0998 18.0442 71.9988 17.5883Z" fill="#003D29"/>
<path d="M51.937 9.32414C48.2894 9.32414 46.1237 11.2334 45.0978 15.1375H44.7273V9.66611H38.9709V30.4118H45.0978V18.3292C45.0978 15.565 46.5226 14.0546 49.0873 14.0546C51.6235 14.0546 52.8774 15.622 52.8774 18.3007V30.4118H59.0042V17.2178C59.0042 12.2023 56.3825 9.32414 51.937 9.32414Z" fill="#003D29"/>
<path d="M33.0148 1.57281C30.9346 1.57281 29.3672 2.94066 29.3672 5.02093C29.3672 7.1012 30.9061 8.46905 32.9863 8.46905C35.0666 8.46905 36.6054 7.1012 36.6054 5.02093C36.6054 2.96916 35.0666 1.57281 33.0148 1.57281Z" fill="#003D29"/>
<path d="M36.0643 9.6652H29.9374V30.411H36.0643V9.6652Z" fill="#003D29"/>
<path d="M88.8405 5.27732H84.9364C84.8224 8.61146 83.3976 10.0648 80.2059 10.3213V14.5388H82.7136V23.6578C82.7136 28.2458 85.3354 30.7536 90.5504 30.7536C91.5307 30.7536 92.5074 30.6291 93.4568 30.3831V25.4531C92.9671 25.5346 92.4713 25.5728 91.9754 25.5671C89.781 25.5671 88.8405 24.7407 88.8405 22.4325V14.5388H94.2262V9.66584H88.8405V5.27732Z" fill="#003D29"/>
<path d="M186.015 14.5388V9.66584H180.629V5.27732H176.782C176.696 7.58557 176.012 8.92493 174.502 9.66584V23.6578C174.502 28.2458 177.124 30.7536 182.339 30.7536C183.319 30.7536 184.296 30.6291 185.245 30.3831V25.4531C184.755 25.5346 184.26 25.5728 183.764 25.5671C181.569 25.5671 180.629 24.7407 180.629 22.4325V14.5388H186.015Z" fill="#003D29"/>
<path d="M165.952 15.451H165.582V9.66611H159.911V30.4118H166.038V19.1841C166.038 16.0779 167.435 14.7671 170.626 14.7671C171.167 14.7671 171.766 14.8241 172.592 14.9665V9.60911C172.022 9.40963 171.481 9.32414 170.854 9.32414C168.374 9.32414 166.665 10.749 165.952 15.451Z" fill="#003D29"/>
<path d="M126.827 25.5104C123.949 25.5104 121.868 23.6011 121.868 19.8964C121.868 16.5909 123.806 14.5391 126.77 14.5391C129.306 14.5391 130.759 15.9639 131.187 18.2437H137.399C136.801 12.9147 132.982 9.32414 126.855 9.32414C120.13 9.32414 115.713 13.8836 115.713 20.1244C115.713 26.5933 119.96 30.7538 126.77 30.7538C132.954 30.7538 136.972 27.3057 137.542 21.7203H131.329C130.988 24 129.42 25.5104 126.827 25.5104Z" fill="#003D29"/>
<path d="M104.855 9.32414C99.5269 9.32414 96.3064 11.9458 95.7364 16.6479H101.607C101.806 15.0235 102.86 14.1686 104.713 14.1686C106.594 14.1686 107.449 15.0235 107.449 16.2489C107.449 17.2748 106.793 17.8163 105.112 18.1297L102.32 18.6427C97.389 19.5545 95.5088 21.5778 95.5088 24.798C95.5088 28.4741 98.102 30.7823 101.692 30.7823C104.628 30.7823 106.537 29.4145 107.42 25.9948H107.791V30.4118H113.575V16.8758C113.575 12.1738 110.755 9.32414 104.855 9.32414ZM104.172 26.5933C102.519 26.5933 101.578 25.7099 101.578 24.399C101.578 23.3161 102.234 22.5752 103.858 22.2047L104.998 21.9482C105.981 21.7203 106.744 21.4173 107.449 20.8067V23.0026C107.449 25.5389 106.109 26.5933 104.172 26.5933Z" fill="#003D29"/>
<path d="M148.399 9.32414C143.071 9.32414 139.85 11.9458 139.28 16.6479H145.151C145.35 15.0235 146.404 14.1686 148.257 14.1686C150.138 14.1686 150.992 15.0235 150.992 16.2489C150.992 17.2748 150.337 17.8163 148.656 18.1297L145.863 18.6427C140.933 19.5545 139.053 21.5778 139.053 24.798C139.053 28.4741 141.646 30.7823 145.236 30.7823C148.172 30.7823 150.081 29.4145 150.964 25.9948H151.335V30.4118H157.119V16.8758C157.119 12.1738 154.299 9.32414 148.399 9.32414ZM147.715 26.5933C146.063 26.5933 145.122 25.7099 145.122 24.399C145.122 23.3161 145.778 22.5752 147.402 22.2047L148.542 21.9482C149.525 21.7203 150.288 21.4173 150.992 20.8067V23.0026C150.992 25.5389 149.653 26.5933 147.715 26.5933Z" fill="#003D29"/>
<path d="M19.6241 6.53672C18.364 6.53672 17.4661 7.08585 16.6368 8.2776L14.2485 11.7089V1.91509H8.5491V11.7089L6.16078 8.2776C5.33151 7.08585 4.43358 6.53672 3.17345 6.53672C1.27213 6.53672 0.00630052 7.94048 3.12078e-05 9.66995C-0.0053832 11.1518 0.693645 12.1167 2.1658 13.0645L11.3988 19.0132L20.6318 13.0645C22.1031 12.1167 22.8021 11.1512 22.7976 9.66995C22.7913 7.94048 21.5254 6.53672 19.6241 6.53672Z" fill="#0AAD0A"/>
<path d="M11.3976 20.4389C16.8853 20.4389 21.3841 24.5348 21.3715 30.4128H1.42487C1.41376 24.5376 5.91085 20.4389 11.3976 20.4389Z" fill="#FF7009"/>
</g>
<defs>
<clipPath id="clip0_1_193">
<rect width="259.406" height="29.9994" fill="white" transform="translate(0 0.937819)"/>
</clipPath>
</defs>
</svg>
