<svg width="564" height="298" viewBox="0 0 564 298" fill="none" xmlns="http://www.w3.org/2000/svg">
<path d="M552.01 5.79126H11.9895C9.15359 5.79126 6.85461 8.09024 6.85461 10.9262V283.932C6.85461 286.768 9.15359 289.067 11.9895 289.067H552.01C554.846 289.067 557.145 286.768 557.145 283.932V10.9262C557.145 8.09024 554.846 5.79126 552.01 5.79126Z" fill="white"/>
<path d="M65.9065 188.08H498.943V188.936H65.9065V188.08Z" fill="#EEEEEE"/>
<path d="M65.9065 145.29H497.239" stroke="#EEEEEE" stroke-width="0.855818" stroke-linecap="square"/>
<path d="M65.9065 231.727H498.943V232.583H65.9065V231.727Z" fill="#EEEEEE"/>
<path fill-rule="evenodd" clip-rule="evenodd" d="M77.1096 232.583V206.149L104.078 208.949C121.053 210.711 138.06 205.926 151.627 195.572L163.557 186.466C178.022 175.426 197.736 174.259 213.402 183.515C229.134 192.808 248.937 191.589 263.411 180.437L324.124 133.654C338.498 122.579 358.148 121.316 373.821 130.46C404.201 148.183 439.88 154.562 474.518 148.463L488.667 145.971V232.583H328.681H77.1096Z" fill="url(#paint0_linear_1_169)" fill-opacity="0.8"/>
<path d="M77.1096 206.48L104.066 209.289C121.031 211.056 138.023 206.192 151.482 195.715L163.131 186.647C177.599 175.385 197.494 174.159 213.236 183.556C229.029 192.985 248.996 191.717 263.469 180.365L322.218 134.286C337.472 122.323 358.47 120.842 375.252 130.548C406.036 148.351 442.147 154.625 477.132 148.248L488.667 146.145" stroke="#43B02A" stroke-width="1.71164"/>
<path d="M73.6221 65.6649C73.6221 66.5251 73.3101 67.196 72.6861 67.6774C72.0621 68.1588 71.2151 68.3995 70.1454 68.3995C68.9865 68.3995 68.095 68.2502 67.4709 67.9515V66.8551C67.8722 67.0244 68.309 67.1581 68.7815 67.2562C69.254 67.3543 69.7219 67.4033 70.1855 67.4033C70.9433 67.4033 71.5138 67.2606 71.8971 66.9754C72.2805 66.6856 72.4722 66.2845 72.4722 65.7719C72.4722 65.4331 72.403 65.1568 72.2649 64.9428C72.1311 64.7244 71.9038 64.5238 71.5829 64.3411C71.2664 64.1583 70.7828 63.951 70.132 63.7193C69.2227 63.3939 68.572 63.0083 68.1796 62.5625C67.7919 62.1168 67.598 61.5351 67.598 60.8175C67.598 60.0642 67.8811 59.4646 68.4472 59.0189C69.0132 58.5732 69.7621 58.3504 70.6937 58.3504C71.6654 58.3504 72.559 58.5286 73.3748 58.8853L73.0204 59.8748C72.2136 59.536 71.4291 59.3667 70.6669 59.3667C70.0652 59.3667 69.5949 59.4959 69.2562 59.7544C68.9174 60.013 68.748 60.3717 68.748 60.8309C68.748 61.1696 68.8104 61.4483 68.9353 61.6667C69.06 61.8806 69.2695 62.0789 69.5637 62.2617C69.8624 62.44 70.317 62.6384 70.9277 62.8568C71.9529 63.2223 72.6571 63.6145 73.0404 64.0335C73.4283 64.4525 73.6221 64.9963 73.6221 65.6649ZM79.9606 68.2658L79.7399 67.2227H79.6865C79.3209 67.6819 78.9554 67.9939 78.5899 68.1588C78.2288 68.3193 77.7764 68.3995 77.2327 68.3995C76.5061 68.3995 75.9356 68.2123 75.521 67.8379C75.1109 67.4635 74.9059 66.9308 74.9059 66.2399C74.9059 64.76 76.0893 63.9845 78.4562 63.9132L79.6998 63.8731V63.4184C79.6998 62.8434 79.575 62.42 79.3254 62.1481C79.0802 61.8716 78.6858 61.7335 78.142 61.7335C77.5313 61.7335 76.8404 61.9207 76.0693 62.2951L75.7283 61.446C76.0893 61.2499 76.4838 61.0961 76.9117 60.9847C77.3441 60.8732 77.7764 60.8175 78.2088 60.8175C79.0824 60.8175 79.7287 61.0114 80.1477 61.3992C80.5712 61.787 80.7829 62.4087 80.7829 63.2646V68.2658H79.9606ZM77.4533 67.4835C78.1442 67.4835 78.6858 67.2941 79.078 66.9152C79.4747 66.5364 79.673 66.0059 79.673 65.3239V64.662L78.5632 64.7088C77.6806 64.74 77.0432 64.8782 76.651 65.1233C76.2632 65.3641 76.0693 65.7407 76.0693 66.2533C76.0693 66.6545 76.1896 66.9598 76.4303 67.1693C76.6754 67.3787 77.0165 67.4835 77.4533 67.4835ZM84.1862 68.2658H83.0763V57.8623H84.1862V68.2658ZM89.6357 68.3995C88.5522 68.3995 87.6964 68.0696 87.0682 67.41C86.4435 66.7503 86.132 65.8343 86.132 64.662C86.132 63.4808 86.4212 62.5425 87.0006 61.8472C87.5851 61.1518 88.3674 60.8041 89.3481 60.8041C90.2664 60.8041 90.9922 61.1072 91.5279 61.7135C92.0619 62.3152 92.3298 63.1109 92.3298 64.1004V64.8024H87.2822C87.3044 65.6627 87.5201 66.3157 87.93 66.7614C88.3451 67.2071 88.9262 67.43 89.6751 67.43C90.4641 67.43 91.2446 67.2651 92.0157 66.9353V67.9248C91.6229 68.0942 91.2515 68.2145 90.8989 68.2858C90.5514 68.3616 90.1303 68.3995 89.6357 68.3995ZM89.3344 61.7335C88.7465 61.7335 88.2758 61.9251 87.924 62.3085C87.5757 62.6919 87.3712 63.2223 87.3087 63.8998H91.1394C91.1394 63.2 90.9836 62.6651 90.6721 62.2951C90.3597 61.9207 89.9138 61.7335 89.3344 61.7335ZM98.9555 66.2667C98.9555 66.9486 98.7014 67.4746 98.1939 67.8446C97.6855 68.2145 96.9718 68.3995 96.0543 68.3995C95.0821 68.3995 94.3247 68.2458 93.7804 67.9382V66.9086C94.133 67.0868 94.5096 67.2273 94.9109 67.3297C95.3166 67.4322 95.706 67.4835 96.0808 67.4835C96.6602 67.4835 97.1061 67.3922 97.4176 67.2094C97.73 67.0222 97.8858 66.7391 97.8858 66.3602C97.8858 66.075 97.7608 65.832 97.5118 65.6315C97.2662 65.4264 96.7852 65.1857 96.0672 64.9094C95.3851 64.6553 94.8998 64.4346 94.6097 64.2475C94.3247 64.0558 94.1108 63.8396 93.9678 63.5989C93.83 63.3582 93.7607 63.0707 93.7607 62.7364C93.7607 62.1391 94.0038 61.6689 94.489 61.3256C94.9751 60.978 95.6418 60.8041 96.4882 60.8041C97.2773 60.8041 98.0484 60.9646 98.8024 61.2856L98.4078 62.1881C97.6718 61.8851 97.006 61.7335 96.4086 61.7335C95.8823 61.7335 95.4852 61.8159 95.2182 61.9808C94.9512 62.1458 94.8168 62.3731 94.8168 62.6628C94.8168 62.859 94.8664 63.0261 94.964 63.1644C95.0667 63.3025 95.2293 63.434 95.4518 63.5588C95.6752 63.6836 96.1031 63.8641 96.7355 64.1004C97.6051 64.4168 98.1913 64.7355 98.4943 65.0565C98.8023 65.3774 98.9555 65.7808 98.9555 66.2667Z" fill="#757575"/>
<path d="M168.517 64.2006V68.2658H167.38V58.4907H170.062C171.261 58.4907 172.145 58.7203 172.716 59.1794C173.291 59.6385 173.578 60.3294 173.578 61.2521C173.578 62.5447 172.923 63.4183 171.613 63.873L174.267 68.2658H172.923L170.556 64.2006H168.517ZM168.517 63.2245H170.075C170.877 63.2245 171.466 63.0663 171.84 62.7498C172.215 62.4288 172.402 61.9497 172.402 61.3123C172.402 60.6659 172.211 60.2001 171.827 59.9149C171.448 59.6296 170.837 59.487 169.995 59.487H168.517V63.2245ZM184.33 63.3648C184.33 64.9294 183.933 66.1597 183.139 67.0556C182.35 67.9515 181.252 68.3994 179.844 68.3994C178.404 68.3994 177.292 67.9604 176.507 67.0823C175.727 66.1997 175.337 64.9561 175.337 63.3515C175.337 61.7602 175.73 60.5277 176.514 59.6541C177.298 58.776 178.413 58.3369 179.856 58.3369C181.261 58.3369 182.357 58.7827 183.146 59.6741C183.935 60.5656 184.33 61.7959 184.33 63.3648ZM176.54 63.3648C176.54 64.6887 176.822 65.6939 177.383 66.3803C177.949 67.0623 178.77 67.4033 179.844 67.4033C180.926 67.4033 181.744 67.0623 182.297 66.3803C182.85 65.6983 183.126 64.6932 183.126 63.3648C183.126 62.05 182.85 61.0537 182.297 60.3762C181.749 59.6942 180.936 59.3532 179.856 59.3532C178.774 59.3532 177.949 59.6965 177.383 60.3829C176.822 61.0648 176.54 62.0589 176.54 63.3648ZM192.66 68.2658L191.444 65.1568H187.525L186.322 68.2658H185.172L189.037 58.4506H189.993L193.837 68.2658H192.66ZM191.089 64.1338L189.953 61.105C189.805 60.7216 189.654 60.2514 189.498 59.6942C189.4 60.1221 189.259 60.5924 189.077 61.105L187.927 64.1338H191.089ZM200.697 65.6649C200.697 66.5251 200.385 67.196 199.761 67.6774C199.137 68.1588 198.291 68.3994 197.221 68.3994C196.061 68.3994 195.17 68.2502 194.546 67.9515V66.855C194.947 67.0244 195.384 67.1581 195.857 67.2562C196.329 67.3542 196.797 67.4033 197.26 67.4033C198.019 67.4033 198.589 67.2606 198.972 66.9754C199.355 66.6856 199.547 66.2845 199.547 65.7718C199.547 65.4331 199.479 65.1568 199.34 64.9428C199.206 64.7244 198.979 64.5238 198.658 64.3411C198.341 64.1583 197.858 63.951 197.207 63.7192C196.298 63.3939 195.647 63.0083 195.255 62.5625C194.867 62.1168 194.673 61.5351 194.673 60.8175C194.673 60.0642 194.956 59.4646 195.522 59.0189C196.089 58.5732 196.838 58.3504 197.769 58.3504C198.741 58.3504 199.634 58.5286 200.45 58.8852L200.096 59.8747C199.289 59.536 198.505 59.3666 197.742 59.3666C197.141 59.3666 196.67 59.4959 196.331 59.7544C195.993 60.013 195.823 60.3717 195.823 60.8309C195.823 61.1696 195.886 61.4482 196.01 61.6666C196.135 61.8806 196.345 62.0789 196.639 62.2617C196.938 62.44 197.392 62.6383 198.003 62.8567C199.028 63.2223 199.732 63.6145 200.115 64.0335C200.503 64.4525 200.697 64.9963 200.697 65.6649Z" fill="#757575"/>
<path d="M74.5545 91.4191C74.5545 92.1011 74.2986 92.6651 73.7872 93.111C73.2757 93.5526 72.5612 93.8308 71.6435 93.9463V95.6913H70.6731V94.0139C70.1116 94.0139 69.5674 93.9711 69.0409 93.8864C68.5144 93.7957 68.0831 93.6733 67.7472 93.5175V92.3442C68.1634 92.5299 68.6423 92.6822 69.1839 92.8029C69.7305 92.9184 70.2268 92.9758 70.6731 92.9758V89.6663C69.6451 89.3403 68.9231 88.962 68.5069 88.5307C68.0957 88.0993 67.8901 87.5422 67.8901 86.861C67.8901 86.2037 68.1434 85.6646 68.6498 85.2434C69.1613 84.8222 69.8357 84.5664 70.6731 84.4761V83.1072H71.6435V84.4611C72.5661 84.4862 73.4563 84.6717 74.3137 85.0177L73.9226 86.0031C73.1754 85.7072 72.4157 85.5317 71.6435 85.4766V88.7412C72.4307 88.992 73.02 89.2376 73.4111 89.4781C73.8023 89.7143 74.0906 89.9873 74.2761 90.2979C74.4617 90.6043 74.5545 90.9775 74.5545 91.4191ZM73.2757 91.5166C73.2757 91.1555 73.1629 90.8645 72.9372 90.6437C72.7166 90.4186 72.2853 90.1952 71.6435 89.9744V92.9005C72.7316 92.7499 73.2757 92.2886 73.2757 91.5166ZM69.1613 86.8456C69.1613 87.2264 69.2741 87.5328 69.4997 87.763C69.7254 87.9941 70.1165 88.2123 70.6731 88.4177V85.5066C70.1767 85.5869 69.8006 85.7448 69.5449 85.9805C69.2891 86.2112 69.1613 86.4998 69.1613 86.8456ZM81.2123 94.7961H79.9937V86.9585C79.9937 86.3064 80.0138 85.6897 80.0539 85.108C79.9486 85.2133 79.8307 85.3236 79.7004 85.4389C79.57 85.5543 78.9733 86.0432 77.9102 86.9055L77.2482 86.0482L80.1592 83.7992H81.2123V94.7961ZM92.9473 89.2829C92.9473 91.1828 92.6469 92.6026 92.0444 93.5398C91.4479 94.4777 90.533 94.9467 89.2989 94.9467C88.1162 94.9467 87.2159 94.4675 86.5988 93.5098C85.9818 92.547 85.6737 91.1383 85.6737 89.2829C85.6737 87.3668 85.9723 85.9454 86.5688 85.0177C87.1654 84.09 88.0759 83.6261 89.2989 83.6261C90.4928 83.6261 91.3982 84.1101 92.0144 85.0779C92.6366 86.0457 92.9473 87.4472 92.9473 89.2829ZM86.9377 89.2829C86.9377 90.8825 87.1251 92.0481 87.5017 92.7807C87.8774 93.5072 88.4765 93.871 89.2989 93.871C90.1316 93.871 90.7333 93.5021 91.1047 92.7653C91.4804 92.0233 91.6687 90.8619 91.6687 89.2829C91.6687 87.7031 91.4804 86.5469 91.1047 85.8151C90.7333 85.0779 90.1316 84.7094 89.2989 84.7094C88.4765 84.7094 87.8774 85.0729 87.5017 85.8C87.1251 86.5221 86.9377 87.6826 86.9377 89.2829ZM96.6119 93.0057L96.724 93.1786C96.5939 93.6801 96.4056 94.2621 96.16 94.9236C95.9144 95.5912 95.6585 96.2099 95.3932 96.7816H94.4526C94.5879 96.2604 94.7359 95.616 94.8968 94.8492C95.062 94.0815 95.1775 93.467 95.2426 93.0057H96.6119ZM105.578 86.3868C105.578 87.0886 105.381 87.6629 104.984 88.1096C104.593 88.5555 104.036 88.8542 103.315 89.0039V89.0647C104.197 89.1751 104.852 89.4558 105.278 89.9068C105.704 90.3578 105.917 90.9501 105.917 91.6818C105.917 92.7302 105.553 93.5372 104.826 94.1038C104.099 94.666 103.066 94.9467 101.727 94.9467C101.146 94.9467 100.612 94.9014 100.125 94.8115C99.644 94.7259 99.175 94.5727 98.7189 94.3519V93.1641C99.1947 93.3994 99.7014 93.58 100.238 93.7058C100.78 93.8256 101.291 93.8864 101.772 93.8864C103.673 93.8864 104.623 93.141 104.623 91.6518C104.623 90.3185 103.575 89.6509 101.479 89.6509H100.396V88.5752H101.494C102.352 88.5752 103.031 88.3877 103.533 88.0112C104.034 87.6303 104.285 87.104 104.285 86.4322C104.285 85.8953 104.099 85.474 103.728 85.1682C103.362 84.8623 102.863 84.7094 102.231 84.7094C101.75 84.7094 101.296 84.7745 100.87 84.9049C100.443 85.0353 99.9573 85.276 99.4104 85.627L98.7788 84.7846C99.2298 84.4285 99.7493 84.1502 100.336 83.9496C100.928 83.744 101.549 83.6412 102.201 83.6412C103.269 83.6412 104.099 83.8869 104.691 84.3783C105.283 84.8648 105.578 85.5342 105.578 86.3868ZM115.584 92.2689H113.952V94.7961H112.755V92.2689H107.407V91.1777L112.628 83.739H113.952V91.1332H115.584V92.2689ZM112.755 91.1332V87.4772C112.755 86.76 112.78 85.9505 112.83 85.0478H112.771C112.53 85.5292 112.304 85.9279 112.094 86.2439L108.656 91.1332H112.755ZM124.656 92.2689H123.023V94.7961H121.828V92.2689H116.48V91.1777L121.7 83.739H123.023V91.1332H124.656V92.2689ZM121.828 91.1332V87.4772C121.828 86.76 121.853 85.9505 121.903 85.0478H121.843C121.602 85.5292 121.377 85.9279 121.166 86.2439L117.728 91.1332H121.828Z" fill="#212121"/>
<path d="M174.537 92.2689H172.904V94.7961H171.708V92.2689H166.36V91.1777L171.581 83.739H172.904V91.1332H174.537V92.2689ZM171.708 91.1332V87.4771C171.708 86.76 171.733 85.9504 171.784 85.0478H171.724C171.483 85.5292 171.257 85.9279 171.047 86.2439L167.609 91.1332H171.708ZM176.253 93.9985C176.253 93.663 176.328 93.4097 176.478 93.2394C176.634 93.0639 176.855 92.9758 177.14 92.9758C177.431 92.9758 177.656 93.0639 177.817 93.2394C177.982 93.4097 178.065 93.663 178.065 93.9985C178.065 94.3245 177.982 94.5753 177.817 94.7507C177.651 94.9262 177.426 95.0143 177.14 95.0143C176.884 95.0143 176.671 94.9364 176.501 94.7807C176.335 94.6207 176.253 94.3596 176.253 93.9985ZM183.663 88.0788C184.821 88.0788 185.731 88.3672 186.393 88.944C187.06 89.5157 187.393 90.3005 187.393 91.2984C187.393 92.4366 187.03 93.3292 186.303 93.9762C185.58 94.6232 184.583 94.9467 183.309 94.9467C182.071 94.9467 181.125 94.7482 180.474 94.3519V93.1486C180.825 93.3746 181.26 93.5526 181.782 93.6827C182.303 93.8085 182.818 93.871 183.324 93.871C184.207 93.871 184.891 93.663 185.378 93.2462C185.869 92.8303 186.114 92.2286 186.114 91.4413C186.114 89.9068 185.175 89.14 183.294 89.14C182.818 89.14 182.181 89.2127 181.383 89.3582L180.736 88.944L181.151 83.7992H186.619V84.95H182.219L181.94 88.2525C182.517 88.137 183.091 88.0788 183.663 88.0788ZM191.855 90.5761L188.989 86.552H190.411L192.584 89.7117L194.751 86.552H196.157L193.291 90.5761L196.308 94.7961H194.893L192.584 91.4567L190.253 94.7961H188.839L191.855 90.5761Z" fill="#212121"/>
<defs>
<linearGradient id="paint0_linear_1_169" x1="63.7576" y1="104.677" x2="63.7576" y2="231.597" gradientUnits="userSpaceOnUse">
<stop stop-color="#43B02A" stop-opacity="0.4"/>
<stop offset="1" stop-color="#43B02A" stop-opacity="0"/>
</linearGradient>
</defs>
</svg>
