<svg width="462" height="301" viewBox="0 0 462 301" fill="none" xmlns="http://www.w3.org/2000/svg">
<g clip-path="url(#clip0_1_21)">
<path d="M36.2009 159.1C36.1361 159.164 36.0713 159.164 36.0713 159.1C36.0713 159.035 36.0713 158.97 36.0713 158.84C36.1361 158.905 36.1361 159.035 36.2009 159.1Z" fill="#FF8200"/>
<path d="M243.038 12.785C242.131 12.6554 241.225 12.9794 240.642 13.6924C233.194 22.3126 219.403 25.6181 210.919 24.3218C199.393 22.5719 187.803 16.1553 185.536 8.05359L181.327 9.34986C179.255 23.2848 190.134 37.5438 208.135 40.266C223.676 42.5993 241.159 31.1272 245.627 16.8034C245.887 15.9608 245.758 14.9886 245.304 14.2757C244.721 13.498 243.944 12.9794 243.038 12.785Z" fill="#FFDA15"/>
<path d="M184.366 2.51296C184.302 2.05926 184.043 1.60557 183.654 1.2815C183.266 1.02225 182.748 0.892621 182.294 0.957435L181.064 1.15187C180.611 1.21668 180.222 1.47594 179.964 1.86482C179.704 2.2537 179.574 2.7074 179.704 3.16109L180.934 9.64246L185.144 8.34618L184.366 2.51296Z" fill="#805D3A"/>
<path d="M368.761 162.218C366.624 161.31 364.488 160.468 362.35 159.625C359.307 158.393 356.199 157.162 353.091 155.995C356.199 157.162 359.243 158.393 362.35 159.625C364.552 160.468 366.689 161.375 368.761 162.218Z" fill="#FFBE1D"/>
<path d="M93.1361 148.883C92.1001 148.883 91.0641 148.883 90.0928 148.948C91.1289 148.948 92.1648 148.883 93.1361 148.883H97.0862C96.8919 148.883 96.6329 148.883 96.4386 148.883C95.4025 148.883 94.3018 148.883 93.1361 148.883Z" fill="#FFBE1D"/>
<path d="M84.4072 149.012C85.0547 149.012 85.767 148.948 86.4145 148.948C85.767 148.948 85.1195 149.012 84.4072 149.012Z" fill="#FFBE1D"/>
<path d="M331.092 190.085C325.2 188.14 319.241 186.26 313.284 184.445C319.307 186.26 325.2 188.14 331.092 190.085Z" fill="white"/>
<path d="M397.038 175.074C395.679 174.362 394.253 173.713 392.894 173.065C394.319 173.713 395.679 174.426 397.038 175.074Z" fill="white"/>
<path d="M408.733 258.417C408.021 258.547 407.308 258.74 406.661 258.87C406.402 261.268 406.013 263.731 405.69 266.064C406.078 263.666 406.402 261.268 406.661 258.87C407.308 258.676 408.021 258.547 408.733 258.417Z" fill="white"/>
<path d="M114.72 71.4966C130.002 67.154 139.262 52.7005 135.506 39.349L80.1414 55.2284C83.9619 68.58 99.4381 75.8391 114.72 71.4966Z" fill="#EB3A38"/>
<path d="M114.661 70.8517C99.3787 75.1942 83.9025 67.9351 80.082 54.5835L77.2977 55.3612C77.9451 57.6297 78.9165 59.7686 80.1467 61.713C80.6648 62.4908 81.1828 63.2037 81.7656 63.9167C84.3557 67.0926 87.723 69.685 91.5435 71.4998C92.3853 71.8887 93.2919 72.2776 94.1984 72.6017C95.5582 73.0554 96.9828 73.5091 98.4074 73.7684C100.35 74.1572 102.293 74.4164 104.365 74.4813C107.926 74.6109 111.617 74.1572 115.309 73.0554C118.999 72.0184 122.367 70.398 125.28 68.4536C126.964 67.3517 128.519 66.0555 129.943 64.6944C130.979 63.6574 132.015 62.6204 132.857 61.4537C133.44 60.676 134.022 59.8982 134.54 59.1204C136.872 55.5557 138.361 51.602 138.878 47.5188C139.008 46.6114 139.073 45.704 139.073 44.7965C139.073 42.5281 138.814 40.1949 138.166 37.9263L135.382 38.7041C139.202 52.0558 129.943 66.4444 114.661 70.8517Z" fill="white"/>
<path d="M138.878 47.5186C138.361 51.6018 136.872 55.5554 134.54 59.1202C134.022 59.8979 133.44 60.6757 132.857 61.4535C131.95 62.5553 130.979 63.6571 129.943 64.6942C128.519 66.0553 126.964 67.2867 125.28 68.4534C122.302 70.3978 118.935 72.0181 115.308 73.0551C111.617 74.0921 107.926 74.5459 104.365 74.481C102.357 74.4163 100.35 74.157 98.4074 73.7681C96.9828 73.444 95.5582 73.0551 94.1984 72.6015C93.2919 72.2773 92.3853 71.8884 91.5435 71.4996C87.6583 69.6849 84.2911 67.157 81.7656 63.9164C81.1829 63.2034 80.6649 62.4905 80.1468 61.7127C78.9165 59.7683 77.9451 57.6943 77.2977 55.361C82.8665 74.8051 98.278 87.5086 117.834 81.8698C137.389 76.2958 143.735 57.3702 138.166 37.9261C138.814 40.1946 139.138 42.5279 139.073 44.7964C139.008 45.7037 138.944 46.6111 138.878 47.5186Z" fill="#2B803F"/>
<path d="M98.6211 73.4891C100.564 73.878 102.507 74.1373 104.578 74.2021C102.571 74.0724 100.564 73.878 98.6211 73.4891Z" fill="white"/>
<path d="M94.3572 72.0667C95.7172 72.5204 97.1417 72.9742 98.5663 73.2333C97.1417 72.9742 95.7172 72.5852 94.3572 72.0667Z" fill="white"/>
<path d="M91.5137 72.0667C92.3555 72.4556 93.2619 72.8445 94.1684 73.1686C93.2619 72.7797 92.3555 72.4556 91.5137 72.0667Z" fill="white"/>
<path d="M125.633 68.7133C127.317 67.6115 128.87 66.3152 130.295 64.9541C128.87 66.3152 127.317 67.5466 125.633 68.7133Z" fill="white"/>
<path d="M132.741 61.5977C133.323 60.8199 133.907 60.0421 134.425 59.2643C133.907 60.1069 133.323 60.8847 132.741 61.5977Z" fill="white"/>
<path d="M138.428 47.7611C138.557 46.8538 138.622 45.9463 138.622 45.039C138.557 45.9463 138.492 46.8538 138.428 47.7611Z" fill="white"/>
<path d="M129.897 65.3498C130.933 64.3127 131.97 63.2757 132.812 62.1091C131.97 63.2757 130.999 64.3127 129.897 65.3498Z" fill="white"/>
<path d="M80.1414 62.1091C80.6595 62.8868 81.1775 63.5998 81.7602 64.3128C81.1775 63.5998 80.6595 62.8221 80.1414 62.1091Z" fill="white"/>
<path d="M90.9337 59.5266C91.3986 59.5266 91.7755 59.1494 91.7755 58.684C91.7755 58.2187 91.3986 57.8414 90.9337 57.8414C90.4688 57.8414 90.0918 58.2187 90.0918 58.684C90.0918 59.1494 90.4688 59.5266 90.9337 59.5266Z" fill="#382A2A"/>
<path d="M103.729 55.2592C104.194 55.2592 104.57 54.882 104.57 54.4166C104.57 53.9513 104.194 53.574 103.729 53.574C103.264 53.574 102.887 53.9513 102.887 54.4166C102.887 54.882 103.264 55.2592 103.729 55.2592Z" fill="#382A2A"/>
<path d="M99.4629 63.7943C99.928 63.7943 100.304 63.417 100.304 62.9517C100.304 62.4863 99.928 62.1091 99.4629 62.1091C98.9979 62.1091 98.6211 62.4863 98.6211 62.9517C98.6211 63.417 98.9979 63.7943 99.4629 63.7943Z" fill="#382A2A"/>
<path d="M110.837 60.9495C111.302 60.9495 111.678 60.5722 111.678 60.1069C111.678 59.6415 111.302 59.2643 110.837 59.2643C110.372 59.2643 109.994 59.6415 109.994 60.1069C109.994 60.5722 110.372 60.9495 110.837 60.9495Z" fill="#382A2A"/>
<path d="M123.631 56.6819C124.096 56.6819 124.473 56.3046 124.473 55.8393C124.473 55.3739 124.096 54.9966 123.631 54.9966C123.167 54.9966 122.79 55.3739 122.79 55.8393C122.79 56.3046 123.167 56.6819 123.631 56.6819Z" fill="#382A2A"/>
<path d="M113.68 52.4144C114.145 52.4144 114.522 52.0372 114.522 51.5718C114.522 51.1065 114.145 50.7292 113.68 50.7292C113.215 50.7292 112.838 51.1065 112.838 51.5718C112.838 52.0372 113.215 52.4144 113.68 52.4144Z" fill="#382A2A"/>
<path d="M126.474 49.5692C126.939 49.5692 127.317 49.1919 127.317 48.7266C127.317 48.2612 126.939 47.884 126.474 47.884C126.009 47.884 125.633 48.2612 125.633 48.7266C125.633 49.1919 126.009 49.5692 126.474 49.5692Z" fill="#382A2A"/>
<path d="M58.0399 144.223C54.6727 152.713 45.0891 156.926 36.6063 153.556C28.1235 150.185 23.9145 140.593 27.2817 132.103C30.6489 123.612 37.0596 121.085 47.744 125.232C58.1046 129.38 61.3423 135.732 58.0399 144.223Z" fill="#EB3A38"/>
<path d="M58.3903 121.809C55.9945 120.058 52.6273 120.189 50.6846 121.031C48.742 121.873 46.3462 124.207 46.0225 127.189C48.4184 128.938 51.7855 128.809 53.7281 127.966C55.6707 127.123 58.0665 124.79 58.3903 121.809Z" fill="#389847"/>
<path d="M71.6723 204.36C64.1608 204.36 57.5559 208.055 53.4764 213.694C49.915 210.583 45.3174 208.703 40.2018 208.703C29.5174 208.703 20.8404 216.934 19.9985 227.37C15.3363 228.666 11.9043 233.008 11.9043 238.064C11.9043 244.221 16.8904 249.212 23.042 249.212C23.4305 249.212 23.819 249.212 24.2723 249.147V249.212H74.9748V248.953C85.7888 247.397 94.142 237.999 94.142 226.721C94.0772 214.407 84.0404 204.36 71.6723 204.36Z" fill="white"/>
<path d="M384.736 71.2141C383.247 70.4363 382.147 69.0752 381.694 67.4549C380.722 63.6308 376.837 61.3624 373.017 62.3346C369.196 63.3068 366.929 67.1956 367.901 71.0196C368.419 73.0289 368.225 75.1677 367.253 76.9825C365.893 79.7047 365.505 82.8805 366.282 86.0564C368.096 92.9915 375.153 97.1396 382.082 95.3248C389.011 93.51 393.155 86.4453 391.341 79.5102C390.5 75.751 387.975 72.8344 384.736 71.2141Z" fill="#89C340"/>
<path d="M377.97 52.1519C375.38 52.2167 373.178 54.1611 372.336 55.7815C371.494 57.4019 371.105 60.2536 372.465 62.4573C375.056 62.3924 377.257 60.448 378.099 58.8277C378.941 57.2721 379.33 54.3556 377.97 52.1519Z" fill="#389847"/>
<path d="M438.012 82.5972C434.256 83.5694 430.436 81.3657 429.464 77.6065C429.205 76.6991 428.299 76.1806 427.392 76.3751C426.486 76.5695 425.968 77.5417 426.162 78.4491C427.134 82.2083 424.932 86.0323 421.176 87.0045C420.27 87.2638 419.751 88.1712 419.946 89.0785C420.14 89.986 421.111 90.5044 422.018 90.31C425.774 89.3378 429.595 91.5415 430.565 95.3007C430.824 96.208 431.731 96.7266 432.637 96.5322C433.544 96.2729 434.062 95.3654 433.868 94.4581C432.897 90.6989 435.098 86.8748 438.854 85.9026C439.761 85.6434 440.278 84.736 440.085 83.8286C439.825 82.8564 438.919 82.3379 438.012 82.5972Z" fill="#F18020"/>
<path d="M97.7547 243.503C93.9989 242.531 91.7325 238.706 92.7038 234.947C92.9628 234.04 92.38 233.132 91.4734 232.873C90.5669 232.614 89.6603 233.197 89.4014 234.105C88.43 237.864 84.6095 240.133 80.8537 239.16C79.9471 238.901 79.0406 239.484 78.7816 240.392C78.5226 241.299 79.1054 242.207 80.012 242.466C83.7677 243.437 86.034 247.262 85.0627 251.021C84.8038 251.929 85.3865 252.836 86.2931 253.095C87.1997 253.354 88.1062 252.771 88.3653 251.863C89.3366 248.104 93.1571 245.836 96.9128 246.808C97.8193 247.067 98.7259 246.484 98.9849 245.577C99.1792 244.669 98.6612 243.697 97.7547 243.503Z" fill="#FFD869"/>
<path d="M308.148 56.1081C317.089 56.1081 324.337 48.8536 324.337 39.9047C324.337 30.9557 317.089 23.7013 308.148 23.7013C299.208 23.7013 291.96 30.9557 291.96 39.9047C291.96 48.8536 299.208 56.1081 308.148 56.1081Z" fill="#F18020"/>
<path d="M312.65 13.758C309.866 13.5635 307.212 15.3783 306.045 16.9987C304.945 18.6191 304.168 21.7301 305.333 24.3227C308.117 24.5171 310.773 22.7023 311.938 21.0819C313.104 19.4616 313.881 16.3505 312.65 13.758Z" fill="#389847"/>
<path d="M406.86 235.612C406.86 258.426 402.392 280.204 394.363 300.167H75.5786C67.549 280.204 63.0811 258.426 63.0811 235.612C63.0811 140.595 140.074 63.5317 235.003 63.5317C329.867 63.5317 406.86 140.595 406.86 235.612Z" fill="#A5CDF5"/>
<path opacity="0.3481" d="M406.796 235.612C406.796 237.816 406.731 240.019 406.666 242.158C406.407 249.482 405.695 256.676 404.529 263.741C404.4 264.584 404.271 265.427 404.076 266.269C403.752 267.954 403.428 269.64 403.104 271.324C402.911 272.167 402.716 273.01 402.587 273.852C402.392 274.566 402.263 275.342 402.068 276.056C401.939 276.704 401.744 277.352 401.615 278.001C401.486 278.584 401.291 279.167 401.162 279.75C400.903 280.852 400.579 281.954 400.255 283.056C400.126 283.38 400.061 283.704 399.932 284.093C399.932 284.158 399.867 284.287 399.867 284.352C399.672 285 399.479 285.583 399.284 286.232C398.96 287.333 398.636 288.435 398.248 289.472C398.054 290.121 397.795 290.768 397.6 291.417C397.471 291.805 397.341 292.259 397.147 292.648C396.952 293.166 396.759 293.685 396.564 294.268C396.499 294.527 396.37 294.787 396.306 295.046C396.046 295.695 395.852 296.342 395.593 296.991C395.528 297.25 395.399 297.509 395.334 297.704C395.075 298.352 394.816 298.999 394.556 299.648C394.492 299.843 394.427 300.037 394.363 300.167H75.5786C67.5491 280.204 63.0811 258.426 63.0811 235.612C63.0811 171.317 98.3072 115.254 150.564 85.698C150.758 85.5684 151.017 85.4387 151.211 85.3091C152.377 84.6609 153.608 84.0129 154.773 83.3647C171.285 74.6148 189.416 68.5224 208.583 65.5409C217.196 64.1798 226.002 63.5317 234.938 63.5317C281.367 63.5317 323.457 81.9388 354.345 111.817C364.576 121.734 373.641 132.883 381.153 145.132C391.384 161.66 398.895 180.002 403.04 199.641C405.241 210.011 406.536 220.64 406.731 231.594C406.731 232.566 406.796 233.603 406.796 234.575V235.612Z" fill="#A5CDF5"/>
<path d="M301.633 124.385C301.633 125.033 301.374 125.746 300.921 126.199C300.403 126.653 299.755 126.913 299.107 126.848L296.647 126.653C296.065 126.589 295.546 126.394 295.158 126.006L294.057 124.969C294.51 126.199 293.927 127.626 292.697 128.08C291.143 128.728 289.265 128.468 287.97 127.367L286.675 126.33C286.545 126.459 286.416 126.524 286.286 126.589C285.768 126.783 285.185 126.784 284.732 126.459L277.027 121.598L272.17 118.292C271.976 118.163 271.782 117.904 271.652 117.645L271.263 116.931C271.004 116.413 271.07 115.765 271.392 115.247C271.716 114.728 272.299 114.469 272.882 114.533L277.285 114.987L283.372 114.598C284.538 114.533 285.509 113.561 285.574 112.395V112.005L279.099 107.599L276.962 107.015L277.027 107.209C277.091 107.728 276.961 108.311 276.573 108.636C276.184 109.024 275.667 109.154 275.084 109.089L268.026 107.663C266.99 107.468 266.213 106.562 266.147 105.524C266.083 104.423 266.731 103.515 267.767 103.191L270.681 102.283L272.882 97.2928C272.882 97.2281 272.882 97.1632 272.882 97.0984C272.818 97.0336 272.818 97.0336 272.752 97.0336L266.471 96.4503L266.601 99.7558L266.86 100.468C267.119 101.246 266.99 102.089 266.471 102.737C265.954 103.386 265.177 103.71 264.335 103.579L262.327 105.848L262.198 106.237C261.809 107.08 260.967 107.663 260.061 107.663L250.801 107.533C250.542 107.533 250.283 107.468 250.024 107.404L243.743 105.135C243.613 105.071 243.484 105.07 243.355 105.07H236.943C236.75 105.07 236.555 105.135 236.426 105.33L233.642 108.7C233.447 108.895 233.447 109.219 233.577 109.413L235.39 113.042C235.39 113.108 235.454 113.172 235.454 113.172L241.8 120.237C242.448 120.949 242.772 121.922 242.707 122.894C242.642 123.866 242.124 124.709 241.412 125.292L238.822 128.274L239.469 130.024L243.614 129.051L246.074 126.07C246.657 125.357 247.693 125.033 248.6 125.357L251.902 126.459L256.953 124.838L257.924 121.857C258.118 121.339 258.442 120.885 258.895 120.626L263.169 118.033C263.363 117.904 263.558 117.839 263.751 117.774L268.155 116.543C268.674 116.413 269.191 116.543 269.644 116.867L276.768 122.764C277.027 122.959 277.22 123.283 277.351 123.672L278.257 127.69C278.451 128.468 277.997 129.311 277.22 129.57L274.695 130.542L276.703 131.968L280.329 130.996C281.365 130.737 282.465 130.866 283.437 131.449C284.344 132.033 285.056 132.94 285.25 133.977L285.574 135.274C285.704 135.792 285.574 136.246 285.25 136.699L282.142 140.588L285.38 145.191C285.574 145.514 285.704 145.838 285.768 146.228L286.221 150.829C286.286 151.478 286.028 152.19 285.574 152.644C285.056 153.098 284.408 153.291 283.761 153.227L282.336 152.968L280.653 155.755L282.207 160.163C282.465 160.939 282.272 161.783 281.753 162.366L280.588 163.598C279.811 164.375 278.58 164.505 277.739 163.857L275.084 161.847L271.587 159.578C270.68 158.995 270.227 158.023 270.357 156.921C270.486 155.884 271.199 154.977 272.17 154.653L275.991 153.357L276.832 152.579L274.307 153.032C273.724 153.162 273.206 153.032 272.752 152.708L263.169 146.421L259.219 146.357L259.673 146.616C259.802 146.681 259.932 146.746 259.997 146.875L262.003 148.755C262.393 149.144 262.586 149.727 262.522 150.246C262.393 150.829 262.003 151.283 261.486 151.478L259.543 152.19L261.033 154.718L262.457 154.783C262.781 154.783 263.105 154.913 263.363 155.106L264.723 156.079C265.435 156.597 265.824 157.504 265.63 158.412C265.435 159.319 264.789 160.032 263.882 160.227L261.097 160.939C260.709 161.005 260.32 161.005 259.997 160.81L255.528 158.541C255.528 158.541 255.464 158.477 255.398 158.477L248.988 154.459L223.474 154.977C221.726 154.977 220.172 156.014 219.46 157.57C218.489 159.709 216.481 161.134 214.151 161.458L199.581 163.598C199.451 163.598 199.322 163.727 199.257 163.791L193.753 173.903C193.17 175.004 192.005 175.718 190.709 175.847C189.414 175.911 188.249 175.328 187.472 174.291C186.76 173.32 186.629 172.023 187.019 170.921L189.673 163.921C189.868 163.403 189.673 162.754 189.22 162.43L183.651 158.348C183.392 158.153 183.004 158.023 182.68 158.088L181.773 158.218C178.536 158.801 175.168 157.894 172.707 155.69C171.024 154.199 168.887 153.486 166.686 153.616L164.678 153.745C162.541 153.876 160.534 154.783 158.98 156.338L157.296 158.023L155.16 160.486C155.16 160.551 155.095 160.551 155.095 160.616L151.663 170.273C151.598 170.402 151.663 170.532 151.663 170.597C151.663 170.661 151.728 170.792 151.921 170.792L159.304 173.384C159.433 173.449 159.562 173.384 159.692 173.32L162.541 171.051C163.383 170.403 164.549 170.273 165.52 170.727L170.765 173.32C171.671 173.773 172.254 174.681 172.319 175.718C172.384 176.755 171.866 177.726 170.959 178.245L163.577 182.783C163.448 182.847 163.383 183.042 163.383 183.106C163.383 183.171 163.383 183.301 163.513 183.43L169.665 189.069C170.506 189.846 170.765 191.014 170.442 192.051L168.239 198.531C167.462 200.736 168.563 203.134 170.7 204.041C171.736 204.495 172.643 205.143 173.291 205.986L174.974 208.124C175.687 209.031 176.787 209.615 177.952 209.68L180.672 209.939C184.04 210.263 187.407 211.3 190.321 213.05L202.948 220.634C206.38 222.707 209.035 225.948 210.33 229.707L211.56 233.337C212.014 234.698 212.661 235.93 213.503 237.096L219.784 245.911C221.856 248.892 222.957 252.327 222.957 255.957C222.957 259.456 224.122 262.827 226.389 265.484L235.131 275.92C238.368 279.743 239.728 284.799 238.887 289.79C238.11 294.327 235.584 298.28 231.893 300.937H147.195L153.8 285.577C156.389 279.484 156.001 272.42 152.569 266.716C150.821 263.734 149.72 260.299 149.396 256.864L148.49 246.689C147.907 239.624 150.497 232.754 155.677 227.828L158.526 225.106L167.527 216.485C169.211 214.865 169.275 212.142 167.722 210.458L167.657 210.393C167.139 209.875 166.557 209.485 165.843 209.226C164.29 208.707 162.93 207.67 162.088 206.245L158.462 199.958C158.138 199.375 157.879 198.726 157.685 198.078L156.066 192.374C156.066 192.31 156.001 192.31 156.001 192.245L145.316 176.689C145.252 176.56 145.123 176.496 144.993 176.496H142.079C139.035 176.496 136.381 174.486 135.41 171.634L132.172 161.588C131.589 159.709 131.913 157.699 133.014 156.143L134.373 154.264C134.438 154.199 134.438 154.069 134.438 154.005L133.726 139.097C133.597 136.894 134.05 134.755 135.086 132.81L136.186 130.607C136.381 130.219 136.381 129.765 136.186 129.375C135.993 128.987 135.669 128.663 135.215 128.597C134.826 128.533 134.438 128.597 134.114 128.792C133.79 128.987 133.531 129.375 133.467 129.765L131.783 139.746C131.654 140.653 130.877 141.237 129.97 141.107C129.064 141.042 128.416 140.264 128.481 139.422L129.064 119.394C129.064 119.005 129.128 118.682 129.258 118.292L135.021 100.663C135.345 99.6262 136.186 98.7187 137.222 98.3299L147.454 94.117C147.648 94.0522 147.778 93.8577 147.843 93.6633L149.072 88.3486C149.267 87.6356 149.655 87.0523 150.239 86.5986C150.432 86.4689 150.691 86.3393 150.885 86.2097C150.951 86.2097 150.951 86.1449 151.015 86.1449C151.987 85.8209 153.087 85.9505 153.864 86.5986C154.253 86.8578 154.512 86.6634 154.641 86.5986C154.771 86.5338 155.03 86.2745 154.9 85.8209L154.641 85.1078C154.577 84.9134 154.512 84.5894 154.447 84.2005C170.959 75.4506 189.09 69.3581 208.258 66.3767L213.891 68.4508C214.215 68.5804 214.539 68.7748 214.733 69.0341L219.719 74.2191L221.792 74.7377C221.921 74.7377 221.985 74.8025 222.115 74.8673L226.713 76.8117L229.691 74.284L226.194 72.3396C225.288 71.8211 224.834 70.8488 225.094 69.8766C225.288 68.9044 226.13 68.1915 227.166 68.0619L230.793 67.8026C231.31 67.7378 231.763 67.8674 232.217 68.1267L239.08 72.4692C239.858 72.9229 240.246 73.8303 240.116 74.6729C239.987 75.5155 239.47 76.1635 238.757 76.4877L242.319 78.1728C242.448 78.2376 242.578 78.1728 242.642 78.1728C242.707 78.1728 242.772 78.108 242.836 77.9136L243.031 77.0061C243.16 76.2932 243.614 75.6451 244.261 75.2562C244.908 74.8673 245.621 74.7377 246.398 74.9322L250.931 76.0339C251.06 76.0988 251.255 76.0988 251.384 76.1635L260.709 80.5709C260.902 80.6357 261.033 80.7653 261.226 80.8949L269.062 87.3764C269.71 87.8948 269.839 88.8671 269.386 89.5801L268.414 91.0059L273.076 91.33C275.084 91.4596 276.832 92.8855 277.285 94.8299C277.48 95.6077 278.063 96.191 278.775 96.4503L286.934 99.1076C287.193 99.1724 287.452 99.3669 287.646 99.6262L289.33 101.571L295.805 108.636C295.935 108.765 295.999 108.96 296.129 109.089L298.46 114.598C298.849 115.57 298.59 116.672 297.813 117.385L297.23 117.904L300.791 120.043C301.503 120.496 301.892 121.209 301.956 121.987L301.633 124.385Z" fill="#389847"/>
<path d="M370.818 186.585C370.364 186.196 369.782 186.002 369.134 185.936L368.034 185.872C366.803 185.807 365.638 186.585 365.249 187.817L364.473 190.085C364.473 190.149 364.407 190.279 364.278 190.344C363.436 190.927 362.983 191.964 363.047 193.001C363.177 194.038 363.825 194.946 364.796 195.335C364.926 195.399 365.119 195.465 365.249 195.465L368.034 196.113C368.227 196.177 368.487 196.177 368.681 196.177C369.523 196.177 370.3 195.789 370.818 195.206L373.214 192.354C373.732 191.771 373.926 190.993 373.862 190.279C373.796 189.502 373.408 188.853 372.826 188.335L370.818 186.585Z" fill="#389847"/>
<path d="M381.81 145.075C381.744 145.206 381.68 145.335 381.68 145.465C380.839 147.344 379.349 148.77 377.471 149.483L372.614 151.298C371.773 151.622 370.931 151.752 370.025 151.752C368.665 151.752 367.24 151.362 366.074 150.649L361.736 147.927C360.505 147.15 359.081 146.955 357.721 147.344L355.067 148.057C353.965 148.381 352.8 148.381 351.699 148.187L341.857 146.307C341.079 146.177 340.238 146.177 339.461 146.436L332.337 148.576C330.525 149.095 328.581 148.964 326.833 148.057L323.143 146.177C319.775 144.492 318.222 140.474 319.516 136.973L321.264 132.178C321.653 131.205 322.495 130.428 323.531 130.298L329.165 129.391C329.424 129.326 329.618 129.196 329.618 128.937L329.941 126.604C330.007 126.085 330.265 125.567 330.589 125.113L334.086 121.03C334.216 120.9 334.216 120.706 334.216 120.641C334.216 120.576 334.15 120.381 334.021 120.252L331.69 118.373C331.69 118.373 331.625 118.373 331.625 118.307L317.639 109.558C316.732 108.974 316.214 108.067 316.279 107.03C316.279 105.993 316.862 105.021 317.768 104.502L318.48 104.113C319.257 103.66 320.164 103.594 321.006 103.919L325.927 105.863C326.251 105.993 326.445 105.799 326.575 105.734C326.639 105.604 326.769 105.409 326.639 105.085L326.316 104.567C326.251 104.438 326.056 104.308 325.927 104.308L298.148 100.419C297.694 100.354 297.176 100.16 296.788 99.9005L284.743 91.021C284.096 90.5673 283.643 89.7896 283.578 88.947L283.448 87.9748C283.319 86.6785 283.966 85.5119 285.132 84.9933C286.297 84.4749 287.592 84.6693 288.499 85.6415L294.975 92.4469C295.104 92.5766 295.233 92.6413 295.363 92.6413H297.176C297.565 92.6413 297.694 92.3821 297.694 92.1877C297.694 91.9933 297.758 91.734 297.435 91.5395L294.975 90.2433C294.909 90.2433 294.909 90.1784 294.845 90.1784L292.903 89.0118C291.931 88.4285 291.413 87.3914 291.543 86.2897C291.607 85.1878 292.32 84.2156 293.291 83.8267L293.549 83.6971C294.392 83.3082 295.428 83.373 296.205 83.8915L301.126 86.8081H301.19L331.69 99.9653H331.754L339.525 102.364C340.561 102.687 341.403 103.594 341.533 104.697C341.727 105.799 341.274 106.9 340.367 107.549C340.109 107.743 340.108 108.002 340.173 108.067C340.173 108.197 340.238 108.391 340.561 108.521L343.41 109.558H343.475L355.001 111.762C365.233 121.678 374.298 132.826 381.81 145.075Z" fill="#389847"/>
<path d="M191.068 192.65L189.255 191.742C188.672 191.418 187.96 191.547 187.442 191.936C186.924 192.325 186.665 192.974 186.795 193.621L187.183 195.566C187.312 196.278 187.895 196.797 188.608 196.927L189.967 197.122H190.227C190.615 197.122 191.004 196.992 191.327 196.732C191.716 196.409 191.91 195.955 191.91 195.436V194.205C192.04 193.557 191.651 192.974 191.068 192.65Z" fill="#389847"/>
<path d="M209.149 206.528L209.668 207.436C209.927 207.889 210.316 208.214 210.769 208.278L211.676 208.538C211.805 208.602 211.999 208.602 212.128 208.602C212.388 208.602 212.646 208.538 212.905 208.407L213.488 208.148C214.071 207.889 214.394 207.306 214.46 206.723C214.524 206.074 214.265 205.491 213.748 205.167L212.452 204.26C212.128 204.001 211.676 203.935 211.287 203.935H211.157C211.222 203.806 211.222 203.742 211.287 203.611C211.481 203.028 211.352 202.445 210.963 201.991L206.624 197.001C206.3 196.677 205.912 196.418 205.459 196.418L199.178 195.833C198.466 195.769 197.818 196.093 197.494 196.741L197.364 196.936L196.652 196.418C196.004 195.964 195.098 195.964 194.451 196.547C193.867 197.065 193.738 197.843 193.998 198.556L194.321 199.334C194.451 199.722 194.774 199.982 195.098 200.176L197.364 201.343L200.148 202.705C200.343 202.769 200.538 202.834 200.732 202.898L203.581 203.157L205.588 204.325C205.783 204.454 205.977 204.519 206.171 204.519L208.891 204.972H209.02C208.826 205.426 208.891 206.009 209.149 206.528Z" fill="#389847"/>
<path d="M406.699 235.668C406.699 237.872 406.633 240.075 406.569 242.214C406.569 242.214 406.504 242.215 406.504 242.149L406.18 241.955L404.561 245.001C404.237 245.65 403.59 246.038 402.943 246.103L397.439 246.492C396.467 246.557 395.56 245.909 395.302 244.936L395.107 244.094C395.043 244.677 394.783 245.196 394.524 245.714L389.862 252.649C389.409 253.298 389.538 254.14 390.121 254.659L395.431 259.066C395.496 259.131 395.626 259.195 395.69 259.26L404.303 263.732C404.367 263.732 404.432 263.798 404.496 263.862C404.367 264.704 404.237 265.547 404.043 266.389C403.72 268.075 403.396 269.76 403.072 271.445C402.878 272.288 402.684 273.13 402.554 273.973C402.36 274.686 402.231 275.464 402.036 276.177C401.907 276.825 401.712 277.473 401.583 278.121C401.453 278.704 401.259 279.288 401.129 279.871C400.871 280.973 400.547 282.074 400.223 283.176C400.158 283.501 400.028 283.825 399.899 284.213C399.899 284.278 399.835 284.408 399.835 284.472C399.64 285.121 399.446 285.704 399.251 286.352C398.928 287.455 398.604 288.556 398.215 289.593C398.022 290.241 397.762 290.89 397.568 291.537C397.439 291.927 397.308 292.38 397.115 292.769C396.92 293.288 396.726 293.806 396.532 294.389C396.467 294.648 396.338 294.908 396.272 295.167C396.014 295.815 395.819 296.463 395.561 297.111C395.496 297.37 395.366 297.63 395.302 297.824C395.043 298.472 394.783 299.121 394.524 299.768C394.459 299.963 394.395 300.158 394.33 300.287H326.274L312.028 294.13C310.797 293.611 309.891 292.38 309.697 291.019L307.624 273.195C307.56 272.806 307.624 272.352 307.689 271.964L309.373 263.798C309.437 263.408 309.567 263.084 309.761 262.76L315.396 252.261C315.589 251.871 315.654 251.353 315.46 250.9C315.006 249.863 315.006 248.695 315.46 247.658C315.913 246.621 316.82 245.843 317.921 245.52L338.836 239.687C338.965 239.622 339.095 239.622 339.224 239.492L349.78 233.01C350.103 232.816 350.492 232.622 350.881 232.557L356.709 231.131C357.679 230.871 358.715 231.066 359.622 231.585L363.96 234.177C364.09 234.242 364.284 234.306 364.414 234.372L392.258 239.816C393.554 240.075 394.59 240.918 395.107 242.149C395.172 242.279 395.172 242.408 395.237 242.473C395.366 242.149 395.56 241.825 395.819 241.566C396.403 241.047 397.179 240.918 397.827 241.112L398.863 241.501L401.971 240.788L402.036 239.363L396.272 231.325C396.208 231.196 396.143 231.131 396.079 231.002L393.683 225.816L385.07 223.483C384.164 223.223 383.128 223.288 382.286 223.742L380.537 224.584C379.89 224.909 379.242 225.103 378.53 225.168L376.069 225.428C374.969 225.557 373.997 226.14 373.35 226.983C371.86 228.927 369.335 229.834 366.875 229.316L360.011 227.826C359.622 227.76 359.234 227.502 358.974 227.243L354.182 222.057C353.535 221.409 353.47 220.437 353.924 219.659L358.457 211.881C358.521 211.752 358.586 211.687 358.651 211.557L360.982 208.9C361.63 208.187 362.73 207.992 363.572 208.511L372.961 214.15L376.069 211.817V209.289L374.516 206.048C374.387 205.724 374.321 205.335 374.321 204.947L374.386 204.298C374.451 203.715 374.709 203.261 375.163 202.872C375.616 202.549 376.199 202.418 376.717 202.483L379.437 202.937H382.74L382.027 202.418L377.818 200.668C376.847 200.28 376.199 199.373 376.199 198.27C376.199 197.233 376.717 196.262 377.688 195.808L381.185 194.123L381.704 191.724L379.955 189.391C379.566 188.873 379.437 188.16 379.632 187.511L380.732 184.335C380.926 183.817 381.314 183.364 381.833 183.169C382.35 182.974 382.933 182.974 383.452 183.169L389.345 185.826C389.927 186.085 390.381 186.604 390.51 187.252C390.639 187.9 390.51 188.548 390.057 189.002L387.79 191.724L388.567 196.455L390.51 199.243C391.027 200.02 390.963 201.058 390.381 201.771L389.991 202.224L397.568 201.964C398.345 201.964 399.058 201.705 399.704 201.317L401.453 200.28C401.907 200.02 402.424 199.826 402.877 199.826C405.08 210.196 406.375 220.825 406.569 231.779C405.986 231.649 405.468 231.325 405.144 230.742L403.655 227.89L402.554 226.659L402.166 229.705L406.569 234.76C406.699 235.02 406.699 235.344 406.699 235.668Z" fill="#389847"/>
<path d="M196.423 194.331L198.883 194.85C199.078 194.915 199.207 194.915 199.402 194.915C200.114 194.915 200.762 194.591 201.215 194.008C201.733 193.295 201.862 192.387 201.474 191.545L197.459 183.508C197.2 182.925 196.617 182.471 196.034 182.341L183.861 178.842C183.084 178.647 182.307 178.776 181.724 179.295L180.428 180.397C179.781 180.981 179.523 181.823 179.716 182.665C179.911 183.508 180.559 184.156 181.4 184.416L191.049 187.008L195.128 193.295C195.322 193.878 195.841 194.202 196.423 194.331Z" fill="#389847"/>
<path d="M358.735 176.889H423.878V176.564C437.8 174.556 448.484 162.565 448.484 148.047C448.484 132.102 435.598 119.204 419.669 119.204C412.287 119.204 405.552 121.992 400.437 126.593C395.321 121.861 388.457 119.009 380.881 119.009C364.887 119.009 351.936 131.973 351.936 147.982C351.936 150.768 352.324 153.426 353.037 155.954C349.669 157.898 347.403 161.528 347.403 165.676C347.532 171.833 352.518 176.889 358.735 176.889Z" fill="white"/>
<path d="M428.713 169.783C423.532 168.811 420.165 163.82 421.072 158.699C421.331 157.469 420.489 156.237 419.259 156.042C418.028 155.783 416.798 156.626 416.604 157.857C415.632 163.042 410.646 166.413 405.531 165.505C404.301 165.246 403.07 166.089 402.876 167.32C402.682 168.552 403.458 169.783 404.689 169.977C409.87 170.95 413.237 175.94 412.33 181.061C412.071 182.292 412.912 183.524 414.143 183.718C415.374 183.978 416.604 183.134 416.798 181.903C417.77 176.718 422.756 173.348 427.871 174.256C429.101 174.515 430.332 173.671 430.526 172.441C430.785 171.209 429.943 169.977 428.713 169.783Z" fill="#FFD869"/>
<path d="M461.132 218.585C461.132 218.716 461.196 218.845 461.196 219.039C461.196 218.91 461.132 218.716 461.132 218.585Z" fill="#611345"/>
<path d="M460.557 216.341C459.781 212.776 458.551 209.99 456.867 208.629C458.551 210.054 459.781 212.776 460.557 216.341Z" fill="#611345"/>
<path d="M459.71 215.74C459.775 215.871 459.775 216.064 459.775 216.193C459.775 216.064 459.71 215.871 459.71 215.74Z" fill="#611345"/>
<path d="M458.699 255.863C460.9 247.827 462.389 230.652 460.771 218.985C460.771 219.115 460.836 219.309 460.836 219.503L457.08 216.975L456.82 219.374C456.756 219.763 456.432 220.152 456.044 220.217C455.655 220.281 455.202 220.086 455.008 219.698L453.778 217.234C453.519 216.716 453 216.263 452.418 216.133C451.835 215.939 451.187 216.068 450.67 216.392L448.338 217.883C448.014 218.078 447.561 218.078 447.237 217.819C446.914 217.559 446.849 217.105 446.978 216.716L448.014 214.513L443.546 214.707C443.675 214.577 443.741 214.448 443.87 214.318C436.423 223.457 428.847 238.883 426.645 246.985C423.214 259.364 428.523 268.049 437.394 270.512C446.201 272.975 455.267 268.244 458.699 255.863Z" fill="#611345"/>
<path d="M444.071 214.643C444.137 214.513 444.266 214.448 444.332 214.318C444.266 214.384 444.137 214.513 444.071 214.643Z" fill="#611345"/>
<path d="M448.346 214.754L447.31 216.957C447.115 217.346 447.245 217.8 447.569 218.059C447.893 218.318 448.346 218.383 448.67 218.124L451 216.633C451.519 216.309 452.166 216.179 452.748 216.374C453.331 216.568 453.85 216.957 454.108 217.476L455.339 219.938C455.534 220.328 455.922 220.522 456.375 220.457C456.764 220.392 457.087 220.069 457.152 219.615L457.411 217.217L461.167 219.745C461.167 219.55 461.102 219.42 461.102 219.226C461.102 219.226 461.102 219.226 461.102 219.161C461.102 219.031 461.037 218.901 461.037 218.708V218.642C461.037 218.513 460.972 218.383 460.972 218.189C460.972 218.189 460.972 218.189 460.972 218.124C460.843 217.476 460.779 216.893 460.649 216.244C460.649 216.115 460.584 215.92 460.584 215.791C459.807 212.226 458.576 209.439 456.893 208.078C457.023 203.8 454.238 199.976 450.094 198.745C448.151 198.161 447.31 201.207 449.252 201.791C451.907 202.568 453.396 204.707 453.655 207.105C451.519 207.43 449.058 209.179 446.533 211.772C446.403 211.902 446.338 211.967 446.209 212.096C445.821 212.55 445.367 213.004 444.978 213.522V213.587C444.914 213.717 444.784 213.781 444.719 213.911C444.719 213.911 444.719 213.976 444.654 213.976C444.59 214.105 444.461 214.17 444.395 214.3C444.266 214.429 444.201 214.559 444.071 214.688L448.346 214.754Z" fill="#37B34A"/>
<path d="M44.5932 266.257C44.2047 266.128 44.0104 265.869 44.0104 265.479C44.3342 258.091 38.2473 250.054 28.7284 246.878C20.0514 243.962 9.36699 246.23 5.09322 252.258C4.89896 252.581 4.76948 252.776 4.38095 252.647C2.69734 252.063 1.20795 252.841 0.689917 254.202C0.171884 255.563 0.948933 257.119 2.63254 257.702C2.95631 257.831 2.89157 258.026 2.89157 258.35C2.43829 265.869 9.56125 274.359 18.4326 277.34C28.0809 280.581 37.8588 277.794 42.0031 271.507C42.1973 271.248 42.5211 271.119 42.8449 271.248C44.5285 271.832 46.0178 271.054 46.5358 269.692C47.0539 268.396 46.3416 266.841 44.5932 266.257Z" fill="#FFD400"/>
<path d="M92.5624 194.976C88.8067 195.949 84.9862 193.744 84.0149 189.985C83.7558 189.079 82.8492 188.56 81.9427 188.754C81.0362 189.013 80.5181 189.921 80.7124 190.828C81.6837 194.587 79.482 198.411 75.7263 199.384C74.8197 199.643 74.3016 200.55 74.4959 201.458C74.6902 202.365 75.6615 202.883 76.5681 202.689C80.3238 201.717 84.1443 203.92 85.1156 207.679C85.3747 208.587 86.2812 209.106 87.1879 208.911C88.0944 208.652 88.6124 207.744 88.4181 206.837C87.4467 203.078 89.6484 199.254 93.4043 198.282C94.3108 198.023 94.8288 197.115 94.6345 196.208C94.3756 195.3 93.4042 194.781 92.5624 194.976Z" fill="#FFD869"/>
</g>
<defs>
<clipPath id="clip0_1_21">
<rect width="460.922" height="299.997" fill="white" transform="translate(0.53125 0.940918)"/>
</clipPath>
</defs>
</svg>
