<svg width="564" height="299" viewBox="0 0 564 299" fill="none" xmlns="http://www.w3.org/2000/svg">
<path d="M552.014 5.96313H11.9863C9.15031 5.96313 6.8513 8.26214 6.8513 11.0981V284.963C6.8513 287.799 9.15031 290.098 11.9863 290.098H552.014C554.85 290.098 557.149 287.799 557.149 284.963V11.0981C557.149 8.26214 554.85 5.96313 552.014 5.96313Z" fill="white"/>
<path d="M480.124 131.77H84.7576C80.9763 131.77 77.9109 134.835 77.9109 138.616C77.9109 142.398 80.9763 145.463 84.7576 145.463H480.124C483.906 145.463 486.971 142.398 486.971 138.616C486.971 134.835 483.906 131.77 480.124 131.77Z" fill="#F2F8FF"/>
<path d="M370.578 131.77H84.7312C80.9499 131.77 77.8846 134.835 77.8846 138.616C77.8846 142.398 80.9499 145.463 84.7312 145.463H370.578C374.359 145.463 377.424 142.398 377.424 138.616C377.424 134.835 374.359 131.77 370.578 131.77Z" fill="#2B78C6"/>
<path d="M350.038 94.9692C350.038 93.0787 351.571 91.5459 353.461 91.5459H396.253C398.143 91.5459 399.676 93.0787 399.676 94.9692V120.644C399.676 122.535 398.143 124.067 396.253 124.067H387.266H381.062H379.386C378.49 124.067 377.648 124.497 377.121 125.223C376.005 126.763 373.709 126.763 372.592 125.223C372.066 124.497 371.224 124.067 370.328 124.067H368.652H362.447H353.461C351.571 124.067 350.038 122.535 350.038 120.644V94.9692Z" fill="white"/>
<path d="M350.466 94.9693C350.466 93.315 351.807 91.9739 353.461 91.9739H396.253C397.907 91.9739 399.248 93.315 399.248 94.9693V120.644C399.248 122.298 397.907 123.64 396.253 123.64H387.266H381.062H379.386C378.353 123.64 377.382 124.135 376.775 124.972C375.829 126.276 373.885 126.276 372.939 124.972C372.332 124.135 371.361 123.64 370.328 123.64H368.652H362.447H353.461C351.807 123.64 350.466 122.298 350.466 120.644V94.9693Z" stroke="#2B78C6" stroke-width="0.855828"/>
<path fill-rule="evenodd" clip-rule="evenodd" d="M366.941 101.388C366.941 100.797 367.42 100.318 368.011 100.318C368.601 100.318 369.08 100.797 369.08 101.388V101.836C370.651 102.102 371.801 102.931 372.224 104.174C372.281 104.337 372.314 104.507 372.314 104.719C372.314 105.304 371.891 105.702 371.265 105.702C370.713 105.702 370.372 105.482 370.096 104.979C369.705 104.093 368.95 103.727 367.941 103.727C366.731 103.727 365.927 104.296 365.927 105.158C365.927 105.881 366.487 106.328 367.877 106.604L369.112 106.856C371.598 107.351 372.672 108.351 372.672 110.131C372.672 112.111 371.331 113.459 369.08 113.79V114.225C369.08 114.816 368.601 115.295 368.011 115.295C367.42 115.295 366.941 114.816 366.941 114.225V113.809C365.096 113.578 363.907 112.713 363.505 111.618C363.423 111.406 363.375 111.179 363.375 110.959C363.375 110.309 363.821 109.879 364.456 109.879C364.96 109.879 365.293 110.074 365.585 110.594C365.967 111.488 366.885 111.894 368.006 111.894C369.324 111.894 370.217 111.26 370.217 110.399C370.217 109.627 369.664 109.188 368.194 108.888L366.95 108.644C364.61 108.181 363.465 107.059 363.465 105.312C363.465 103.452 364.868 102.137 366.941 101.818V101.388Z" fill="#343538"/>
<path fill-rule="evenodd" clip-rule="evenodd" d="M380.634 101.388C380.634 100.797 381.113 100.318 381.704 100.318C382.294 100.318 382.774 100.797 382.774 101.388V101.836C384.344 102.102 385.494 102.931 385.917 104.174C385.975 104.337 386.007 104.507 386.007 104.719C386.007 105.304 385.584 105.702 384.959 105.702C384.406 105.702 384.065 105.482 383.789 104.979C383.398 104.093 382.643 103.727 381.635 103.727C380.424 103.727 379.62 104.296 379.62 105.158C379.62 105.881 380.181 106.328 381.57 106.604L382.805 106.856C385.292 107.351 386.365 108.351 386.365 110.131C386.365 112.111 385.025 113.459 382.774 113.79V114.225C382.774 114.816 382.294 115.295 381.704 115.295C381.113 115.295 380.634 114.816 380.634 114.225V113.809C378.789 113.578 377.6 112.713 377.198 111.618C377.117 111.406 377.068 111.179 377.068 110.959C377.068 110.309 377.515 109.879 378.149 109.879C378.653 109.879 378.986 110.074 379.279 110.594C379.66 111.488 380.579 111.894 381.7 111.894C383.017 111.894 383.91 111.26 383.91 110.399C383.91 109.627 383.357 109.188 381.887 108.888L380.644 108.644C378.304 108.181 377.158 107.059 377.158 105.312C377.158 103.452 378.561 102.137 380.634 101.818V101.388Z" fill="#343538"/>
<path d="M83.4141 87.7821C82.3399 87.7821 81.4907 88.1407 80.8668 88.8578C80.2471 89.5716 79.9373 90.5498 79.9373 91.7933C79.9373 93.0728 80.236 94.0621 80.8333 94.7622C81.435 95.4571 82.2909 95.8054 83.4008 95.8054C84.0828 95.8054 84.8606 95.6822 85.7344 95.4374V96.4336C85.0567 96.6878 84.2209 96.8145 83.227 96.8145C81.7872 96.8145 80.6751 96.378 79.8906 95.5042C79.1105 94.6304 78.7205 93.3894 78.7205 91.7796C78.7205 90.7723 78.9077 89.89 79.2821 89.1326C79.661 88.3743 80.2048 87.7906 80.9136 87.3807C81.6267 86.9707 82.4648 86.7653 83.4276 86.7653C84.4528 86.7653 85.3487 86.9528 86.1152 87.3268L85.6342 88.3033C84.894 87.9558 84.1541 87.7821 83.4141 87.7821ZM92.2061 96.681L91.9862 95.6377H91.9323C91.5668 96.0973 91.2014 96.4088 90.836 96.574C90.4748 96.734 90.0221 96.8145 89.4786 96.8145C88.752 96.8145 88.1812 96.6279 87.767 96.253C87.357 95.8782 87.1516 95.3459 87.1516 94.6552C87.1516 93.1755 88.3352 92.3993 90.7025 92.3282L91.946 92.288V91.8335C91.946 91.2584 91.821 90.8348 91.5711 90.5635C91.3263 90.2871 90.9318 90.1484 90.3875 90.1484C89.7773 90.1484 89.0867 90.3359 88.3156 90.7098L87.9741 89.8609C88.3352 89.6649 88.7298 89.5108 89.1577 89.3996C89.5899 89.2883 90.0221 89.2327 90.4551 89.2327C91.3281 89.2327 91.9751 89.4261 92.3936 89.8146C92.8172 90.2023 93.0286 90.8237 93.0286 91.6795V96.681H92.2061ZM89.6994 95.8987C90.3901 95.8987 90.9318 95.7096 91.3238 95.3305C91.7209 94.9513 91.9186 94.4207 91.9186 93.7386V93.0771L90.8094 93.1241C89.9262 93.1549 89.2895 93.2936 88.8967 93.5384C88.509 93.7788 88.3156 94.1554 88.3156 94.6681C88.3156 95.0694 88.4354 95.375 88.6759 95.5846C88.9215 95.7943 89.2621 95.8987 89.6994 95.8987ZM104.663 96.681V91.914C104.663 91.3295 104.538 90.893 104.289 90.6029C104.039 90.3093 103.651 90.1621 103.125 90.1621C102.434 90.1621 101.924 90.3607 101.594 90.7569C101.264 91.154 101.099 91.7642 101.099 92.5892V96.681H99.989V91.914C99.989 91.3295 99.8641 90.893 99.615 90.6029C99.3651 90.3093 98.9749 90.1621 98.4443 90.1621C97.7493 90.1621 97.2393 90.3718 96.9132 90.7903C96.5923 91.2054 96.4322 91.8866 96.4322 92.8366V96.681H95.3222V89.3534H96.2251L96.4057 90.3555H96.4588C96.6684 89.9995 96.9628 89.7205 97.3411 89.5202C97.7245 89.3191 98.1524 89.219 98.6249 89.219C99.7708 89.219 100.52 89.6341 100.871 90.4625H100.925C101.144 90.0791 101.46 89.7761 101.874 89.5536C102.29 89.3302 102.762 89.219 103.293 89.219C104.121 89.219 104.741 89.4329 105.151 89.8609C105.566 90.2845 105.773 90.964 105.773 91.9003V96.681H104.663ZM111.476 96.8145C110.999 96.8145 110.562 96.728 110.166 96.5543C109.773 96.3754 109.443 96.1041 109.175 95.7378H109.096C109.149 96.1658 109.175 96.5714 109.175 96.9548V99.9708H108.066V89.3534H108.968L109.122 90.3555H109.175C109.461 89.955 109.793 89.6649 110.173 89.4869C110.551 89.308 110.986 89.219 111.476 89.219C112.447 89.219 113.196 89.5511 113.723 90.2152C114.253 90.8793 114.518 91.8113 114.518 93.0103C114.518 94.2136 114.249 95.1499 113.709 95.8183C113.174 96.4824 112.43 96.8145 111.476 96.8145ZM111.315 90.1621C110.567 90.1621 110.025 90.3692 109.691 90.7834C109.356 91.1985 109.185 91.8584 109.175 92.763V93.0103C109.175 94.0399 109.348 94.7776 109.691 95.2235C110.034 95.6642 110.584 95.885 111.342 95.885C111.975 95.885 112.47 95.6291 112.826 95.1165C113.188 94.6039 113.368 93.8969 113.368 92.9966C113.368 92.0834 113.188 91.3834 112.826 90.8973C112.47 90.4069 111.966 90.1621 111.315 90.1621ZM120.971 96.681L120.75 95.6377H120.696C120.33 96.0973 119.965 96.4088 119.599 96.574C119.238 96.734 118.786 96.8145 118.242 96.8145C117.516 96.8145 116.946 96.6279 116.53 96.253C116.121 95.8782 115.916 95.3459 115.916 94.6552C115.916 93.1755 117.099 92.3993 119.466 92.3282L120.709 92.288V91.8335C120.709 91.2584 120.585 90.8348 120.336 90.5635C120.09 90.2871 119.695 90.1484 119.152 90.1484C118.541 90.1484 117.85 90.3359 117.079 90.7098L116.738 89.8609C117.099 89.6649 117.493 89.5108 117.921 89.3996C118.353 89.2883 118.786 89.2327 119.219 89.2327C120.092 89.2327 120.739 89.4261 121.157 89.8146C121.581 90.2023 121.793 90.8237 121.793 91.6795V96.681H120.971ZM118.463 95.8987C119.154 95.8987 119.695 95.7096 120.087 95.3305C120.484 94.9513 120.683 94.4207 120.683 93.7386V93.0771L119.573 93.1241C118.691 93.1549 118.053 93.2936 117.661 93.5384C117.272 93.7788 117.079 94.1554 117.079 94.6681C117.079 95.0694 117.2 95.375 117.44 95.5846C117.685 95.7943 118.026 95.8987 118.463 95.8987ZM125.196 96.681H124.086V89.3534H125.196V96.681ZM123.992 87.367C123.992 87.1128 124.055 86.9279 124.18 86.8124C124.305 86.6917 124.461 86.6318 124.648 86.6318C124.826 86.6318 124.98 86.6917 125.109 86.8124C125.239 86.9322 125.303 87.1179 125.303 87.367C125.303 87.6169 125.239 87.8043 125.109 87.9284C124.98 88.0491 124.826 88.109 124.648 88.109C124.461 88.109 124.305 88.0491 124.18 87.9284C124.055 87.8043 123.992 87.6169 123.992 87.367ZM133.547 89.3534V90.0551L132.19 90.2152C132.315 90.3718 132.426 90.5763 132.524 90.8305C132.622 91.0804 132.671 91.3628 132.671 91.6795C132.671 92.3975 132.426 92.9701 131.935 93.398C131.445 93.8259 130.772 94.0399 129.916 94.0399C129.698 94.0399 129.493 94.0219 129.301 93.9868C128.829 94.2359 128.593 94.5499 128.593 94.9291C128.593 95.1302 128.675 95.2791 128.84 95.3775C129.005 95.4708 129.287 95.5179 129.689 95.5179H130.986C131.78 95.5179 132.388 95.6848 132.812 96.0194C133.24 96.3532 133.454 96.8393 133.454 97.4769C133.454 98.2882 133.128 98.9053 132.477 99.3289C131.827 99.7568 130.877 99.9708 129.629 99.9708C128.67 99.9708 127.931 99.7919 127.409 99.4359C126.892 99.079 126.634 98.5758 126.634 97.9245C126.634 97.4786 126.776 97.0935 127.061 96.7682C127.346 96.4422 127.748 96.2222 128.265 96.1058C128.077 96.0211 127.92 95.8902 127.79 95.7113C127.666 95.5333 127.603 95.3262 127.603 95.09C127.603 94.8221 127.674 94.5885 127.817 94.3873C127.959 94.1871 128.184 93.9928 128.492 93.8062C128.113 93.6496 127.803 93.3843 127.563 93.0103C127.327 92.6355 127.209 92.2075 127.209 91.7266C127.209 90.9238 127.449 90.3067 127.931 89.8746C128.412 89.4372 129.094 89.219 129.976 89.219C130.36 89.219 130.706 89.2635 131.013 89.3534H133.547ZM127.703 97.9116C127.703 98.3079 127.87 98.6091 128.205 98.8137C128.539 99.0191 129.018 99.1218 129.643 99.1218C130.574 99.1218 131.263 98.9814 131.709 98.6999C132.159 98.4234 132.384 98.0469 132.384 97.5702C132.384 97.1739 132.261 96.8975 132.016 96.7409C131.771 96.5894 131.309 96.5141 130.632 96.5141H129.301C128.798 96.5141 128.405 96.6339 128.124 96.8752C127.844 97.1157 127.703 97.4606 127.703 97.9116ZM128.305 91.7C128.305 92.2127 128.45 92.6004 128.74 92.8631C129.029 93.1258 129.433 93.2576 129.95 93.2576C131.033 93.2576 131.574 92.7313 131.574 91.6795C131.574 90.5789 131.026 90.0286 129.929 90.0286C129.408 90.0286 129.007 90.169 128.726 90.4497C128.445 90.7304 128.305 91.1472 128.305 91.7ZM140.066 96.681V91.9405C140.066 91.3432 139.93 90.8973 139.658 90.6029C139.386 90.3093 138.961 90.1621 138.381 90.1621C137.615 90.1621 137.052 90.3692 136.696 90.7834C136.339 91.1985 136.161 91.8823 136.161 92.8366V96.681H135.051V89.3534H135.954L136.134 90.3555H136.188C136.416 89.9952 136.734 89.7162 137.144 89.5202C137.554 89.3191 138.011 89.219 138.515 89.219C139.397 89.219 140.061 89.4329 140.507 89.8609C140.953 90.2845 141.176 90.964 141.176 91.9003V96.681H140.066ZM147.187 86.9057H149.948C151.245 86.9057 152.183 87.1 152.763 87.4877C153.342 87.8753 153.632 88.4881 153.632 89.326C153.632 89.9054 153.47 90.3846 153.145 90.7638C152.823 91.1378 152.353 91.3808 151.733 91.4929V91.5597C153.217 91.813 153.96 92.5935 153.96 93.8995C153.96 94.7733 153.663 95.4554 153.071 95.9458C152.482 96.4362 151.658 96.681 150.597 96.681H147.187V86.9057ZM148.324 91.0915H150.195C150.998 91.0915 151.575 90.9666 151.928 90.7167C152.279 90.4625 152.456 90.0372 152.456 89.4398C152.456 88.8912 152.26 88.4975 151.867 88.2562C151.475 88.0114 150.851 87.889 149.995 87.889H148.324V91.0915ZM148.324 92.0544V95.7113H150.363C151.151 95.7113 151.744 95.5598 152.141 95.2569C152.542 94.9496 152.743 94.4704 152.743 93.8191C152.743 93.2131 152.538 92.7673 152.128 92.4823C151.722 92.1964 151.103 92.0544 150.269 92.0544H148.324ZM156.942 89.3534V94.1066C156.942 94.704 157.078 95.1499 157.35 95.4443C157.621 95.7378 158.048 95.885 158.627 95.885C159.394 95.885 159.953 95.6762 160.305 95.2569C160.661 94.8375 160.84 94.1537 160.84 93.2046V89.3534H161.95V96.681H161.034L160.873 95.6985H160.813C160.586 96.0588 160.269 96.3352 159.864 96.5269C159.462 96.7186 159.004 96.8145 158.487 96.8145C157.595 96.8145 156.926 96.6031 156.481 96.1794C156.039 95.7558 155.818 95.0788 155.818 94.1469V89.3534H156.942ZM169.297 95.6985H169.238C168.725 96.4422 167.958 96.8145 166.938 96.8145C165.979 96.8145 165.232 96.4867 164.698 95.832C164.168 95.1764 163.902 94.2453 163.902 93.0368C163.902 91.8293 164.169 90.8904 164.704 90.222C165.239 89.5536 165.984 89.219 166.938 89.219C167.932 89.219 168.694 89.5801 169.225 90.3025H169.311L169.264 89.7744L169.238 89.2592V86.2773H170.348V96.681H169.445L169.297 95.6985ZM167.078 95.885C167.836 95.885 168.384 95.6805 168.723 95.2705C169.066 94.8555 169.238 94.1896 169.238 93.2713V93.0368C169.238 91.9987 169.064 91.2584 168.716 90.8168C168.373 90.3718 167.823 90.1484 167.065 90.1484C166.414 90.1484 165.914 90.4026 165.567 90.911C165.224 91.4142 165.053 92.128 165.053 93.0505C165.053 93.9868 165.224 94.6929 165.567 95.1696C165.91 95.6471 166.414 95.885 167.078 95.885ZM178.706 89.3534V90.0551L177.348 90.2152C177.473 90.3718 177.584 90.5763 177.682 90.8305C177.78 91.0804 177.829 91.3628 177.829 91.6795C177.829 92.3975 177.584 92.9701 177.094 93.398C176.604 93.8259 175.93 94.0399 175.074 94.0399C174.856 94.0399 174.651 94.0219 174.46 93.9868C173.987 94.2359 173.751 94.5499 173.751 94.9291C173.751 95.1302 173.833 95.2791 173.998 95.3775C174.163 95.4708 174.446 95.5179 174.847 95.5179H176.144C176.938 95.5179 177.547 95.6848 177.97 96.0194C178.397 96.3532 178.611 96.8393 178.611 97.4769C178.611 98.2882 178.286 98.9053 177.636 99.3289C176.984 99.7568 176.035 99.9708 174.788 99.9708C173.829 99.9708 173.089 99.7919 172.568 99.4359C172.051 99.079 171.792 98.5758 171.792 97.9245C171.792 97.4786 171.934 97.0935 172.22 96.7682C172.505 96.4422 172.906 96.2222 173.423 96.1058C173.236 96.0211 173.078 95.8902 172.948 95.7113C172.823 95.5333 172.761 95.3262 172.761 95.09C172.761 94.8221 172.833 94.5885 172.975 94.3873C173.118 94.1871 173.343 93.9928 173.65 93.8062C173.272 93.6496 172.962 93.3843 172.721 93.0103C172.485 92.6355 172.366 92.2075 172.366 91.7266C172.366 90.9238 172.608 90.3067 173.089 89.8746C173.571 89.4372 174.253 89.219 175.135 89.219C175.518 89.219 175.863 89.2635 176.171 89.3534H178.706ZM172.862 97.9116C172.862 98.3079 173.029 98.6091 173.363 98.8137C173.697 99.0191 174.176 99.1218 174.8 99.1218C175.732 99.1218 176.42 98.9814 176.866 98.6999C177.317 98.4234 177.542 98.0469 177.542 97.5702C177.542 97.1739 177.419 96.8975 177.174 96.7409C176.929 96.5894 176.468 96.5141 175.79 96.5141H174.46C173.956 96.5141 173.564 96.6339 173.283 96.8752C173.002 97.1157 172.862 97.4606 172.862 97.9116ZM173.464 91.7C173.464 92.2127 173.608 92.6004 173.898 92.8631C174.188 93.1258 174.591 93.2576 175.108 93.2576C176.191 93.2576 176.733 92.7313 176.733 91.6795C176.733 90.5789 176.184 90.0286 175.088 90.0286C174.567 90.0286 174.165 90.169 173.885 90.4497C173.604 90.7304 173.464 91.1472 173.464 91.7ZM183.306 96.8145C182.222 96.8145 181.366 96.485 180.738 95.8251C180.114 95.1653 179.802 94.2496 179.802 93.0771C179.802 91.896 180.091 90.9572 180.671 90.2622C181.255 89.5673 182.037 89.219 183.018 89.219C183.936 89.219 184.663 89.522 185.198 90.1287C185.733 90.7304 186 91.5263 186 92.5156V93.2174H180.952C180.974 94.0775 181.19 94.7305 181.601 95.1764C182.015 95.6223 182.597 95.8448 183.346 95.8448C184.134 95.8448 184.915 95.6805 185.686 95.3501V96.3403C185.294 96.5089 184.921 96.6296 184.569 96.7006C184.221 96.7768 183.8 96.8145 183.306 96.8145ZM183.004 90.1484C182.416 90.1484 181.946 90.3401 181.594 90.7235C181.246 91.107 181.041 91.6376 180.979 92.3145H184.81C184.81 91.6153 184.654 91.0804 184.342 90.7098C184.03 90.3359 183.584 90.1484 183.004 90.1484ZM190.265 95.8987C190.462 95.8987 190.651 95.885 190.834 95.8585C191.017 95.8277 191.161 95.796 191.268 95.7652V96.6142C191.148 96.6724 190.97 96.7186 190.733 96.7546C190.502 96.7948 190.293 96.8145 190.105 96.8145C188.688 96.8145 187.979 96.0682 187.979 94.5748V90.2152H186.929V89.6803L187.979 89.219L188.447 87.6545H189.089V89.3534H191.215V90.2152H189.089V94.5277C189.089 94.9693 189.194 95.3082 189.403 95.5444C189.612 95.7806 189.9 95.8987 190.265 95.8987Z" fill="#757575"/>
<path d="M84.6785 184.831H79.2293V175.056H84.6785V176.066H80.3659V179.215H84.4178V180.217H80.3659V183.814H84.6785V184.831ZM91.4118 182.832C91.4118 183.514 91.1576 184.04 90.6492 184.41C90.1409 184.78 89.428 184.965 88.5097 184.965C87.5383 184.965 86.78 184.812 86.2366 184.503V183.474C86.5883 183.652 86.9649 183.792 87.3663 183.895C87.7719 183.998 88.1622 184.049 88.5362 184.049C89.1156 184.049 89.5615 183.957 89.8738 183.775C90.1854 183.588 90.342 183.304 90.342 182.925C90.342 182.64 90.217 182.397 89.9671 182.197C89.7224 181.992 89.2405 181.751 88.5233 181.475C87.8413 181.22 87.3551 181 87.0659 180.813C86.78 180.621 86.5661 180.405 86.424 180.164C86.2854 179.924 86.216 179.636 86.216 179.302C86.216 178.704 86.4591 178.234 86.9452 177.891C87.4313 177.543 88.0971 177.369 88.9444 177.369C89.7335 177.369 90.5046 177.53 91.2577 177.851L90.8632 178.753C90.128 178.45 89.4613 178.299 88.864 178.299C88.3385 178.299 87.9414 178.382 87.6744 178.546C87.4065 178.711 87.273 178.939 87.273 179.228C87.273 179.424 87.3218 179.592 87.4202 179.73C87.522 179.868 87.6855 179.999 87.908 180.124C88.1305 180.249 88.5584 180.43 89.1917 180.666C90.0613 180.983 90.6467 181.301 90.9505 181.622C91.2577 181.943 91.4118 182.346 91.4118 182.832ZM95.5908 184.049C95.7868 184.049 95.9759 184.035 96.159 184.009C96.3413 183.978 96.486 183.946 96.5929 183.915V184.764C96.4731 184.823 96.2943 184.869 96.0581 184.905C95.827 184.945 95.6173 184.965 95.4299 184.965C94.0126 184.965 93.304 184.218 93.304 182.725V178.365H92.2539V177.831L93.304 177.369L93.7713 175.805H94.4132V177.504H96.5399V178.365H94.4132V182.678C94.4132 183.12 94.5184 183.458 94.7281 183.695C94.9369 183.931 95.2245 184.049 95.5908 184.049ZM99.1741 184.831H98.0641V177.504H99.1741V184.831ZM97.9708 175.517C97.9708 175.263 98.0333 175.078 98.1583 174.963C98.2824 174.842 98.439 174.782 98.6255 174.782C98.8044 174.782 98.9576 174.842 99.0868 174.963C99.2161 175.082 99.2811 175.268 99.2811 175.517C99.2811 175.767 99.2161 175.955 99.0868 176.079C98.9576 176.199 98.8044 176.259 98.6255 176.259C98.439 176.259 98.2824 176.199 98.1583 176.079C98.0333 175.955 97.9708 175.767 97.9708 175.517ZM110.868 184.831V180.064C110.868 179.48 110.743 179.043 110.494 178.753C110.244 178.46 109.857 178.312 109.33 178.312C108.64 178.312 108.13 178.511 107.799 178.907C107.47 179.304 107.304 179.914 107.304 180.739V184.831H106.194V180.064C106.194 179.48 106.07 179.043 105.82 178.753C105.571 178.46 105.18 178.312 104.65 178.312C103.955 178.312 103.445 178.522 103.119 178.941C102.798 179.356 102.638 180.037 102.638 180.987V184.831H101.528V177.504H102.431L102.611 178.506H102.664C102.874 178.15 103.168 177.871 103.547 177.67C103.93 177.469 104.358 177.369 104.83 177.369C105.976 177.369 106.725 177.784 107.077 178.613H107.131C107.349 178.229 107.666 177.926 108.08 177.704C108.495 177.48 108.967 177.369 109.498 177.369C110.326 177.369 110.946 177.583 111.356 178.011C111.771 178.435 111.978 179.114 111.978 180.051V184.831H110.868ZM118.778 184.831L118.557 183.788H118.504C118.138 184.248 117.773 184.559 117.408 184.724C117.046 184.884 116.594 184.965 116.05 184.965C115.324 184.965 114.753 184.778 114.339 184.403C113.929 184.028 113.723 183.496 113.723 182.805C113.723 181.326 114.907 180.549 117.273 180.478L118.518 180.438V179.984C118.518 179.409 118.393 178.985 118.143 178.714C117.898 178.437 117.503 178.299 116.959 178.299C116.349 178.299 115.657 178.486 114.886 178.86L114.546 178.011C114.907 177.815 115.301 177.661 115.729 177.55C116.161 177.439 116.594 177.383 117.026 177.383C117.9 177.383 118.546 177.576 118.965 177.965C119.389 178.353 119.6 178.974 119.6 179.83V184.831H118.778ZM116.271 184.049C116.962 184.049 117.503 183.86 117.895 183.481C118.292 183.102 118.49 182.571 118.49 181.889V181.227L117.38 181.274C116.498 181.305 115.86 181.444 115.468 181.689C115.081 181.929 114.886 182.306 114.886 182.818C114.886 183.22 115.007 183.525 115.247 183.735C115.493 183.945 115.834 184.049 116.271 184.049ZM124.261 184.049C124.457 184.049 124.646 184.035 124.829 184.009C125.012 183.978 125.156 183.946 125.263 183.915V184.764C125.143 184.823 124.964 184.869 124.728 184.905C124.497 184.945 124.288 184.965 124.1 184.965C122.683 184.965 121.974 184.218 121.974 182.725V178.365H120.924V177.831L121.974 177.369L122.442 175.805H123.083V177.504H125.21V178.365H123.083V182.678C123.083 183.12 123.189 183.458 123.398 183.695C123.607 183.931 123.895 184.049 124.261 184.049ZM129.83 184.965C128.747 184.965 127.891 184.635 127.262 183.975C126.639 183.316 126.327 182.4 126.327 181.227C126.327 180.046 126.616 179.107 127.196 178.412C127.779 177.718 128.562 177.369 129.542 177.369C130.461 177.369 131.187 177.672 131.722 178.279C132.257 178.881 132.525 179.677 132.525 180.666V181.368H127.476C127.499 182.228 127.715 182.881 128.125 183.327C128.54 183.773 129.121 183.995 129.87 183.995C130.659 183.995 131.44 183.831 132.211 183.5V184.491C131.818 184.659 131.446 184.78 131.094 184.851C130.746 184.927 130.325 184.965 129.83 184.965ZM129.529 178.299C128.941 178.299 128.471 178.49 128.118 178.874C127.771 179.257 127.565 179.788 127.504 180.465H131.334C131.334 179.766 131.179 179.231 130.866 178.86C130.555 178.486 130.109 178.299 129.529 178.299ZM139.412 183.849H139.351C138.838 184.592 138.072 184.965 137.051 184.965C136.093 184.965 135.347 184.637 134.812 183.982C134.281 183.327 134.016 182.396 134.016 181.187C134.016 179.979 134.283 179.041 134.818 178.372C135.353 177.704 136.097 177.369 137.051 177.369C138.045 177.369 138.808 177.73 139.338 178.453H139.425L139.378 177.925L139.351 177.409V174.428H140.461V184.831H139.558L139.412 183.849ZM137.192 184.035C137.949 184.035 138.498 183.831 138.837 183.421C139.18 183.006 139.351 182.34 139.351 181.422V181.187C139.351 180.149 139.177 179.409 138.83 178.967C138.487 178.522 137.936 178.299 137.178 178.299C136.528 178.299 136.029 178.553 135.68 179.061C135.337 179.564 135.166 180.278 135.166 181.201C135.166 182.137 135.337 182.843 135.68 183.32C136.024 183.797 136.528 184.035 137.192 184.035ZM152.062 182.23C152.062 183.09 151.749 183.761 151.125 184.242C150.502 184.724 149.654 184.965 148.584 184.965C147.426 184.965 146.535 184.816 145.91 184.517V183.421C146.311 183.589 146.749 183.724 147.221 183.821C147.694 183.92 148.162 183.969 148.625 183.969C149.383 183.969 149.953 183.826 150.336 183.541C150.72 183.251 150.911 182.85 150.911 182.337C150.911 181.998 150.842 181.722 150.704 181.508C150.571 181.29 150.343 181.09 150.022 180.906C149.706 180.724 149.222 180.516 148.572 180.285C147.662 179.959 147.011 179.574 146.619 179.128C146.231 178.682 146.038 178.1 146.038 177.383C146.038 176.63 146.321 176.03 146.887 175.584C147.452 175.138 148.201 174.916 149.133 174.916C150.104 174.916 150.999 175.094 151.814 175.45L151.46 176.44C150.653 176.101 149.868 175.932 149.107 175.932C148.505 175.932 148.034 176.062 147.695 176.32C147.356 176.578 147.188 176.937 147.188 177.396C147.188 177.735 147.249 178.014 147.374 178.232C147.499 178.446 147.709 178.644 148.003 178.827C148.302 179.006 148.757 179.203 149.367 179.422C150.392 179.788 151.096 180.18 151.48 180.599C151.867 181.018 152.062 181.562 152.062 182.23ZM158.4 184.831L158.179 183.788H158.126C157.761 184.248 157.395 184.559 157.03 184.724C156.669 184.884 156.216 184.965 155.672 184.965C154.946 184.965 154.375 184.778 153.961 184.403C153.55 184.028 153.345 183.496 153.345 182.805C153.345 181.326 154.529 180.549 156.895 180.478L158.139 180.438V179.984C158.139 179.409 158.015 178.985 157.765 178.714C157.519 178.437 157.126 178.299 156.581 178.299C155.971 178.299 155.28 178.486 154.509 178.86L154.168 178.011C154.529 177.815 154.924 177.661 155.352 177.55C155.784 177.439 156.216 177.383 156.648 177.383C157.522 177.383 158.168 177.576 158.587 177.965C159.011 178.353 159.222 178.974 159.222 179.83V184.831H158.4ZM155.892 184.049C156.584 184.049 157.126 183.86 157.518 183.481C157.914 183.102 158.112 182.571 158.112 181.889V181.227L157.002 181.274C156.12 181.305 155.482 181.444 155.09 181.689C154.703 181.929 154.509 182.306 154.509 182.818C154.509 183.22 154.629 183.525 154.87 183.735C155.115 183.945 155.456 184.049 155.892 184.049ZM162.626 184.831H161.516V174.428H162.626V184.831ZM168.075 184.965C166.992 184.965 166.136 184.635 165.508 183.975C164.884 183.316 164.571 182.4 164.571 181.227C164.571 180.046 164.861 179.107 165.441 178.412C166.025 177.718 166.807 177.369 167.788 177.369C168.706 177.369 169.432 177.672 169.967 178.279C170.502 178.881 170.769 179.677 170.769 180.666V181.368H165.722C165.744 182.228 165.96 182.881 166.37 183.327C166.785 183.773 167.366 183.995 168.115 183.995C168.904 183.995 169.684 183.831 170.455 183.5V184.491C170.063 184.659 169.691 184.78 169.338 184.851C168.991 184.927 168.57 184.965 168.075 184.965ZM167.774 178.299C167.186 178.299 166.715 178.49 166.363 178.874C166.016 179.257 165.811 179.788 165.748 180.465H169.58C169.58 179.766 169.423 179.231 169.112 178.86C168.799 178.486 168.353 178.299 167.774 178.299ZM177.395 182.832C177.395 183.514 177.142 184.04 176.633 184.41C176.125 184.78 175.412 184.965 174.494 184.965C173.522 184.965 172.764 184.812 172.221 184.503V183.474C172.573 183.652 172.949 183.792 173.35 183.895C173.756 183.998 174.146 184.049 174.52 184.049C175.1 184.049 175.546 183.957 175.858 183.775C176.17 183.588 176.325 183.304 176.325 182.925C176.325 182.64 176.201 182.397 175.951 182.197C175.706 181.992 175.225 181.751 174.507 181.475C173.825 181.22 173.339 181 173.049 180.813C172.764 180.621 172.55 180.405 172.407 180.164C172.27 179.924 172.2 179.636 172.2 179.302C172.2 178.704 172.443 178.234 172.929 177.891C173.415 177.543 174.081 177.369 174.929 177.369C175.717 177.369 176.489 177.53 177.242 177.851L176.847 178.753C176.111 178.45 175.446 178.299 174.848 178.299C174.322 178.299 173.926 178.382 173.658 178.546C173.391 178.711 173.257 178.939 173.257 179.228C173.257 179.424 173.306 179.592 173.403 179.73C173.506 179.868 173.669 179.999 173.892 180.124C174.115 180.249 174.543 180.43 175.176 180.666C176.045 180.983 176.631 181.301 176.934 181.622C177.242 181.943 177.395 182.346 177.395 182.832Z" fill="#757575"/>
<path d="M85.6778 213.975C85.6778 214.657 85.4224 215.221 84.911 215.667C84.3995 216.109 83.6849 216.387 82.7672 216.503V218.248H81.7969V216.57C81.2353 216.57 80.6912 216.527 80.1647 216.443C79.6382 216.352 79.2068 216.23 78.8709 216.074V214.901C79.2871 215.086 79.766 215.239 80.3076 215.359C80.8542 215.475 81.3506 215.532 81.7969 215.532V212.223C80.7689 211.897 80.0468 211.518 79.6306 211.087C79.2194 210.656 79.0138 210.098 79.0138 209.417C79.0138 208.76 79.2671 208.221 79.7736 207.8C80.285 207.379 80.9595 207.123 81.7969 207.032V205.664H82.7672V207.017C83.6899 207.042 84.5801 207.228 85.4375 207.574L85.0464 208.56C84.2992 208.264 83.5395 208.088 82.7672 208.033V211.297C83.5545 211.548 84.1438 211.794 84.5349 212.034C84.9261 212.271 85.2144 212.544 85.3999 212.854C85.5855 213.161 85.6778 213.534 85.6778 213.975ZM84.3995 214.073C84.3995 213.712 84.2867 213.421 84.061 213.2C83.8404 212.975 83.4091 212.752 82.7672 212.531V215.457C83.8554 215.306 84.3995 214.845 84.3995 214.073ZM80.285 209.402C80.285 209.783 80.3978 210.089 80.6235 210.319C80.8492 210.55 81.2403 210.769 81.7969 210.974V208.063C81.3004 208.143 80.9244 208.301 80.6687 208.537C80.4129 208.768 80.285 209.056 80.285 209.402ZM91.3511 206.198C92.3533 206.198 93.1483 206.43 93.7354 206.897C94.3217 207.363 94.6152 208.008 94.6152 208.83C94.6152 209.372 94.4475 209.866 94.1112 210.312C93.7757 210.758 93.2391 211.165 92.5013 211.53C93.394 211.956 94.029 212.406 94.4047 212.877C94.7804 213.343 94.9687 213.885 94.9687 214.502C94.9687 215.414 94.6503 216.144 94.0136 216.691C93.3769 217.232 92.5039 217.503 91.3956 217.503C90.2223 217.503 89.3202 217.247 88.6878 216.735C88.0562 216.219 87.7404 215.489 87.7404 214.547C87.7404 213.288 88.5072 212.307 90.0417 211.606C89.3502 211.214 88.8538 210.793 88.5525 210.342C88.2522 209.885 88.1015 209.377 88.1015 208.815C88.1015 208.018 88.3942 207.384 88.9813 206.912C89.5727 206.436 90.3626 206.198 91.3511 206.198ZM88.9736 214.577C88.9736 215.179 89.1816 215.648 89.5984 215.983C90.0194 216.319 90.6083 216.487 91.3657 216.487C92.1128 216.487 92.6948 216.312 93.1107 215.961C93.5275 215.61 93.7354 215.128 93.7354 214.517C93.7354 214.03 93.5395 213.599 93.1483 213.223C92.7572 212.841 92.0751 212.473 91.1029 212.117C90.3558 212.438 89.814 212.794 89.4777 213.185C89.1422 213.571 88.9736 214.035 88.9736 214.577ZM91.3357 207.213C90.7092 207.213 90.2171 207.363 89.8611 207.664C89.5051 207.965 89.3271 208.366 89.3271 208.868C89.3271 209.329 89.4751 209.725 89.7713 210.057C90.0674 210.387 90.6134 210.718 91.411 211.049C92.1282 210.748 92.6349 210.425 92.9301 210.079C93.2314 209.733 93.382 209.329 93.382 208.868C93.382 208.361 93.1988 207.96 92.8325 207.664C92.4714 207.363 91.9724 207.213 91.3357 207.213ZM98.6633 215.562L98.7763 215.735C98.6453 216.236 98.4579 216.818 98.2114 217.48C97.9658 218.148 97.7099 218.766 97.4446 219.338H96.504C96.6393 218.817 96.7873 218.172 96.9482 217.406C97.1134 216.638 97.2289 216.023 97.294 215.562H98.6633ZM108.104 211.839C108.104 213.739 107.804 215.159 107.201 216.096C106.605 217.034 105.69 217.503 104.456 217.503C103.273 217.503 102.372 217.024 101.755 216.066C101.139 215.103 100.83 213.695 100.83 211.839C100.83 209.923 101.129 208.502 101.725 207.574C102.322 206.646 103.233 206.182 104.456 206.182C105.649 206.182 106.555 206.667 107.171 207.635C107.793 208.602 108.104 210.003 108.104 211.839ZM102.094 211.839C102.094 213.439 102.282 214.604 102.658 215.337C103.034 216.064 103.634 216.427 104.456 216.427C105.288 216.427 105.89 216.058 106.261 215.322C106.637 214.58 106.825 213.418 106.825 211.839C106.825 210.259 106.637 209.103 106.261 208.371C105.89 207.635 105.288 207.266 104.456 207.266C103.634 207.266 103.034 207.629 102.658 208.356C102.282 209.078 102.094 210.239 102.094 211.839ZM117.177 211.839C117.177 213.739 116.875 215.159 116.274 216.096C115.677 217.034 114.762 217.503 113.528 217.503C112.345 217.503 111.445 217.024 110.828 216.066C110.211 215.103 109.903 213.695 109.903 211.839C109.903 209.923 110.202 208.502 110.798 207.574C111.395 206.646 112.305 206.182 113.528 206.182C114.722 206.182 115.627 206.667 116.244 207.635C116.866 208.602 117.177 210.003 117.177 211.839ZM111.167 211.839C111.167 213.439 111.354 214.604 111.731 215.337C112.107 216.064 112.706 216.427 113.528 216.427C114.361 216.427 114.963 216.058 115.334 215.322C115.71 214.58 115.898 213.418 115.898 211.839C115.898 210.259 115.71 209.103 115.334 208.371C114.963 207.635 114.361 207.266 113.528 207.266C112.706 207.266 112.107 207.629 111.731 208.356C111.354 209.078 111.167 210.239 111.167 211.839ZM126.249 211.839C126.249 213.739 125.948 215.159 125.346 216.096C124.75 217.034 123.834 217.503 122.601 217.503C121.417 217.503 120.517 217.024 119.901 216.066C119.284 215.103 118.976 213.695 118.976 211.839C118.976 209.923 119.273 208.502 119.871 207.574C120.467 206.646 121.377 206.182 122.601 206.182C123.795 206.182 124.699 206.667 125.316 207.635C125.938 208.602 126.249 210.003 126.249 211.839ZM120.239 211.839C120.239 213.439 120.427 214.604 120.803 215.337C121.179 216.064 121.778 216.427 122.601 216.427C123.434 216.427 124.035 216.058 124.406 215.322C124.782 214.58 124.971 213.418 124.971 211.839C124.971 210.259 124.782 209.103 124.406 208.371C124.035 207.635 123.434 207.266 122.601 207.266C121.778 207.266 121.179 207.629 120.803 208.356C120.427 209.078 120.239 210.239 120.239 211.839ZM132.155 213.795V212.651H138.624V213.795H132.155ZM151.549 213.975C151.549 214.657 151.293 215.221 150.782 215.667C150.271 216.109 149.556 216.387 148.639 216.503V218.248H147.668V216.57C147.107 216.57 146.562 216.527 146.036 216.443C145.509 216.352 145.078 216.23 144.742 216.074V214.901C145.158 215.086 145.637 215.239 146.179 215.359C146.725 215.475 147.221 215.532 147.668 215.532V212.223C146.64 211.897 145.918 211.518 145.502 211.087C145.09 210.656 144.885 210.098 144.885 209.417C144.885 208.76 145.138 208.221 145.645 207.8C146.156 207.379 146.83 207.123 147.668 207.032V205.664H148.639V207.017C149.561 207.042 150.451 207.228 151.309 207.574L150.918 208.56C150.17 208.264 149.41 208.088 148.639 208.033V211.297C149.426 211.548 150.015 211.794 150.406 212.034C150.797 212.271 151.085 212.544 151.271 212.854C151.457 213.161 151.549 213.534 151.549 213.975ZM150.271 214.073C150.271 213.712 150.158 213.421 149.932 213.2C149.712 212.975 149.28 212.752 148.639 212.531V215.457C149.726 215.306 150.271 214.845 150.271 214.073ZM146.156 209.402C146.156 209.783 146.269 210.089 146.495 210.319C146.72 210.55 147.111 210.769 147.668 210.974V208.063C147.172 208.143 146.795 208.301 146.54 208.537C146.284 208.768 146.156 209.056 146.156 209.402ZM158.208 217.352H156.989V209.515C156.989 208.863 157.009 208.246 157.049 207.664C156.943 207.77 156.825 207.88 156.695 207.995C156.565 208.11 155.968 208.599 154.905 209.462L154.243 208.604L157.154 206.355H158.208V217.352ZM169.882 217.352H162.654V216.277L165.55 213.366C166.432 212.473 167.014 211.837 167.295 211.455C167.575 211.074 167.786 210.703 167.926 210.342C168.067 209.981 168.137 209.593 168.137 209.176C168.137 208.59 167.959 208.126 167.603 207.784C167.247 207.439 166.753 207.266 166.121 207.266C165.665 207.266 165.231 207.341 164.82 207.492C164.414 207.641 163.96 207.915 163.458 208.312L162.796 207.461C163.81 206.619 164.913 206.198 166.106 206.198C167.139 206.198 167.949 206.463 168.536 206.994C169.123 207.522 169.415 208.231 169.415 209.124C169.415 209.82 169.22 210.51 168.829 211.192C168.438 211.874 167.706 212.736 166.632 213.779L164.226 216.134V216.194H169.882V217.352ZM173.606 215.562L173.719 215.735C173.589 216.236 173.401 216.818 173.155 217.48C172.91 218.148 172.654 218.766 172.388 219.338H171.448C171.583 218.817 171.731 218.172 171.891 217.406C172.057 216.638 172.172 216.023 172.237 215.562H173.606ZM183.048 211.839C183.048 213.739 182.747 215.159 182.145 216.096C181.549 217.034 180.633 217.503 179.4 217.503C178.216 217.503 177.316 217.024 176.699 216.066C176.082 215.103 175.774 213.695 175.774 211.839C175.774 209.923 176.072 208.502 176.669 207.574C177.266 206.646 178.176 206.182 179.4 206.182C180.593 206.182 181.498 206.667 182.115 207.635C182.736 208.602 183.048 210.003 183.048 211.839ZM177.037 211.839C177.037 213.439 177.226 214.604 177.601 215.337C177.978 216.064 178.577 216.427 179.4 216.427C180.232 216.427 180.834 216.058 181.204 215.322C181.581 214.58 181.768 213.418 181.768 211.839C181.768 210.259 181.581 209.103 181.204 208.371C180.834 207.635 180.232 207.266 179.4 207.266C178.577 207.266 177.978 207.629 177.601 208.356C177.226 209.078 177.037 210.239 177.037 211.839ZM192.12 211.839C192.12 213.739 191.819 215.159 191.218 216.096C190.62 217.034 189.705 217.503 188.472 217.503C187.289 217.503 186.388 217.024 185.771 216.066C185.155 215.103 184.846 213.695 184.846 211.839C184.846 209.923 185.145 208.502 185.741 207.574C186.338 206.646 187.248 206.182 188.472 206.182C189.665 206.182 190.571 206.667 191.187 207.635C191.809 208.602 192.12 210.003 192.12 211.839ZM186.11 211.839C186.11 213.439 186.298 214.604 186.674 215.337C187.05 216.064 187.65 216.427 188.472 216.427C189.304 216.427 189.906 216.058 190.277 215.322C190.653 214.58 190.841 213.418 190.841 211.839C190.841 210.259 190.653 209.103 190.277 208.371C189.906 207.635 189.304 207.266 188.472 207.266C187.65 207.266 187.05 207.629 186.674 208.356C186.298 209.078 186.11 210.239 186.11 211.839ZM201.192 211.839C201.192 213.739 200.892 215.159 200.289 216.096C199.693 217.034 198.778 217.503 197.544 217.503C196.361 217.503 195.461 217.024 194.844 216.066C194.227 215.103 193.919 213.695 193.919 211.839C193.919 209.923 194.217 208.502 194.814 207.574C195.41 206.646 196.321 206.182 197.544 206.182C198.738 206.182 199.643 206.667 200.259 207.635C200.882 208.602 201.192 210.003 201.192 211.839ZM195.183 211.839C195.183 213.439 195.37 214.604 195.747 215.337C196.122 216.064 196.722 216.427 197.544 216.427C198.377 216.427 198.978 216.058 199.35 215.322C199.725 214.58 199.914 213.418 199.914 211.839C199.914 210.259 199.725 209.103 199.35 208.371C198.978 207.635 198.377 207.266 197.544 207.266C196.722 207.266 196.122 207.629 195.747 208.356C195.37 209.078 195.183 210.239 195.183 211.839Z" fill="#212121"/>
</svg>
