<svg width="64" height="65" viewBox="0 0 64 65" fill="none" xmlns="http://www.w3.org/2000/svg">
<rect y="0.140625" width="64" height="64" rx="32" fill="#F2F8FF"/>
<path d="M30.1854 30.9775C30.292 30.9988 30.388 31.0095 30.4734 31.0095C30.58 31.0095 30.6867 31.0095 30.7934 31.0095H31.3694C31.9454 31.0095 32.4894 30.9348 33.0014 30.7855C33.5347 30.6148 33.9934 30.3802 34.3774 30.0815C34.7827 29.7615 35.1027 29.3668 35.3374 28.8975C35.572 28.4282 35.6894 27.8948 35.6894 27.2975C35.6894 26.0815 35.3054 25.1748 34.5374 24.5775C33.7694 23.9588 32.8094 23.6495 31.6574 23.6495C30.932 23.6495 30.292 23.7882 29.7374 24.0655C29.204 24.3215 28.756 24.6735 28.3934 25.1215C28.052 25.5695 27.796 26.0922 27.6254 26.6895C27.4547 27.2868 27.3694 27.9162 27.3694 28.5775H24.6494C24.692 27.4895 24.8627 26.4975 25.1614 25.6015C25.4814 24.7055 25.9294 23.9375 26.5054 23.2975C27.0814 22.6575 27.796 22.1562 28.6494 21.7935C29.524 21.4308 30.5267 21.2495 31.6574 21.2495C32.6387 21.2495 33.5454 21.3775 34.3774 21.6335C35.2307 21.8682 35.9667 22.2308 36.5854 22.7215C37.204 23.2122 37.684 23.8415 38.0254 24.6095C38.388 25.3775 38.5694 26.2842 38.5694 27.3295C38.5694 28.3535 38.2707 29.2602 37.6734 30.0495C37.076 30.8388 36.3294 31.4362 35.4334 31.8415V31.9055C36.82 32.2042 37.844 32.8548 38.5054 33.8575C39.188 34.8602 39.5294 36.0442 39.5294 37.4095C39.5294 38.5402 39.316 39.5428 38.8894 40.4175C38.484 41.2708 37.9294 41.9855 37.2254 42.5615C36.5214 43.1375 35.6894 43.5748 34.7294 43.8735C33.7907 44.1508 32.788 44.2895 31.7214 44.2895C30.5694 44.2895 29.524 44.1295 28.5854 43.8095C27.6467 43.4895 26.8467 43.0202 26.1854 42.4015C25.524 41.7615 25.012 40.9828 24.6494 40.0655C24.308 39.1482 24.148 38.1028 24.1694 36.9295H26.8894C26.932 38.4015 27.3587 39.6068 28.1694 40.5455C28.98 41.4628 30.164 41.9215 31.7214 41.9215C32.3827 41.9215 33.012 41.8255 33.6094 41.6335C34.2067 41.4202 34.7294 41.1322 35.1774 40.7695C35.6254 40.3855 35.9774 39.9268 36.2334 39.3935C36.5107 38.8388 36.6494 38.2202 36.6494 37.5375C36.6494 36.8335 36.5214 36.2148 36.2654 35.6815C36.0094 35.1268 35.668 34.6682 35.2414 34.3055C34.8147 33.9215 34.3027 33.6442 33.7054 33.4735C33.1294 33.2815 32.5 33.1855 31.8174 33.1855C31.2414 33.1855 30.6974 33.2175 30.1854 33.2815V30.9775Z" fill="#2B79C6"/>
</svg>
