<svg width="64" height="65" viewBox="0 0 64 65" fill="none" xmlns="http://www.w3.org/2000/svg">
<rect y="0.742188" width="64" height="64" rx="32" fill="#F2F8FF"/>
<path d="M24.6174 29.8831C24.5534 28.7311 24.6707 27.6644 24.9694 26.6831C25.268 25.7017 25.7267 24.8591 26.3454 24.1551C26.9854 23.4297 27.7747 22.8644 28.7134 22.4591C29.652 22.0537 30.7187 21.8511 31.9134 21.8511C32.8947 21.8511 33.812 22.0004 34.6654 22.2991C35.54 22.5764 36.2974 22.9924 36.9374 23.5471C37.5774 24.0804 38.0787 24.7524 38.4414 25.5631C38.8254 26.3737 39.0174 27.3124 39.0174 28.3791C39.0174 29.3817 38.8574 30.2671 38.5374 31.0351C38.2387 31.8031 37.8334 32.4964 37.3214 33.1151C36.8094 33.7124 36.2227 34.2564 35.5614 34.7471C34.9 35.2377 34.2174 35.7071 33.5134 36.1551C32.8094 36.5817 32.1054 37.0084 31.4014 37.4351C30.6974 37.8404 30.0467 38.2777 29.4494 38.7471C28.8734 39.2164 28.372 39.7284 27.9454 40.2831C27.54 40.8164 27.2734 41.4351 27.1454 42.1391H38.7934V44.5391H23.9774C24.084 43.1951 24.3187 42.0537 24.6814 41.1151C25.0654 40.1551 25.5454 39.3231 26.1214 38.6191C26.6974 37.9151 27.348 37.2964 28.0734 36.7631C28.7987 36.2297 29.556 35.7284 30.3454 35.2591C31.3054 34.6617 32.148 34.1177 32.8734 33.6271C33.5987 33.1151 34.196 32.6031 34.6654 32.0911C35.156 31.5791 35.5187 31.0244 35.7534 30.4271C36.0094 29.8297 36.1374 29.1364 36.1374 28.3471C36.1374 27.7284 36.02 27.1737 35.7854 26.6831C35.5507 26.1711 35.2307 25.7337 34.8254 25.3711C34.4414 25.0084 33.9827 24.7311 33.4494 24.5391C32.916 24.3471 32.3507 24.2511 31.7534 24.2511C30.964 24.2511 30.2814 24.4217 29.7054 24.7631C29.1507 25.0831 28.692 25.5097 28.3294 26.0431C27.9667 26.5764 27.7 27.1844 27.5294 27.8671C27.38 28.5284 27.316 29.2004 27.3374 29.8831H24.6174Z" fill="#2B79C6"/>
</svg>
